<svg id="Layer_1" data-name="Layer 1" xmlns="http://www.w3.org/2000/svg" viewBox="0 0 371.21 184.37"><defs><style>.cls-1,.cls-12,.cls-17,.cls-18{fill:none;}.cls-1,.cls-10,.cls-11,.cls-12,.cls-13,.cls-14,.cls-17,.cls-2,.cls-3,.cls-5,.cls-6,.cls-7,.cls-8,.cls-9{stroke:#231f20;stroke-miterlimit:10;}.cls-2{fill:#f05144;}.cls-3{fill:#f7941d;}.cls-4{fill:#231f20;}.cls-10,.cls-5{fill:#6cbe45;}.cls-11,.cls-6{fill:#488fcd;}.cls-7{fill:#fff;}.cls-10,.cls-11,.cls-12,.cls-7,.cls-8,.cls-9{stroke-width:0.5px;}.cls-13,.cls-8{fill:#cd62a5;}.cls-9{fill:#f89938;}.cls-12{opacity:0.5;}.cls-14{fill:#f9ed32;}.cls-15{fill:#a7a9ac;}.cls-16{fill:#fff200;}.cls-17{stroke-width:0.25px;}</style></defs><path class="cls-1" d="M111.28,174.65" transform="translate(-10.78 -4.22)"/><path class="cls-1" d="M111.28,36" transform="translate(-10.78 -4.22)"/><rect class="cls-2" x="100.5" y="65.9" width="50" height="20" rx="10"/><rect class="cls-2" x="0.5" y="65.9" width="50" height="20" rx="10"/><path class="cls-3" d="M80.08,80.13a6.21,6.21,0,1,1,6.2,6.2,6.2,6.2,0,0,1-6.2-6.2" transform="translate(-10.78 -4.22)"/><rect class="cls-2" x="100.5" y="104.81" width="50" height="20" rx="10"/><line class="cls-1" x1="85.33" y1="114.81" x2="100.5" y2="114.81"/><path class="cls-4" d="M92.49,119a18.19,18.19,0,0,1,5.13,2.85l-1-2.85,1-2.85A18.19,18.19,0,0,1,92.49,119Z" transform="translate(-10.78 -4.22)"/><line class="cls-1" x1="50.5" y1="114.81" x2="69.56" y2="114.81"/><path class="cls-2" d="M61.28,119a10,10,0,0,1-10,10h-30a10,10,0,0,1-10-10h0a10,10,0,0,1,10-10h30a10,10,0,0,1,10,10Z" transform="translate(-10.78 -4.22)"/><path class="cls-5" d="M80.08,119a6.21,6.21,0,1,1,6.2,6.2,6.2,6.2,0,0,1-6.2-6.2" transform="translate(-10.78 -4.22)"/><rect class="cls-2" x="100.5" y="143.72" width="50" height="20" rx="10"/><rect class="cls-2" x="0.5" y="143.72" width="50" height="20" rx="10"/><circle class="cls-6" cx="75.5" cy="153.72" r="6.21"/><line class="cls-1" x1="25.5" y1="86.26" x2="25.5" y2="101.19"/><path class="cls-4" d="M36.28,109a18.05,18.05,0,0,0-2.85-5.13l2.85,1,2.86-1A17.84,17.84,0,0,0,36.28,109Z" transform="translate(-10.78 -4.22)"/><line class="cls-1" x1="25.5" y1="124.81" x2="25.5" y2="139.74"/><path class="cls-4" d="M36.28,147.59a18.19,18.19,0,0,0-2.85-5.13l2.85,1,2.86-1A18,18,0,0,0,36.28,147.59Z" transform="translate(-10.78 -4.22)"/><line class="cls-1" x1="125.5" y1="86.08" x2="125.5" y2="101.01"/><path class="cls-4" d="M136.28,108.86a18.05,18.05,0,0,0-2.85-5.13l2.85,1,2.86-1A17.84,17.84,0,0,0,136.28,108.86Z" transform="translate(-10.78 -4.22)"/><line class="cls-1" x1="125.5" y1="124.81" x2="125.5" y2="139.74"/><path class="cls-4" d="M136.28,147.59a18.19,18.19,0,0,0-2.85-5.13l2.85,1,2.86-1A18,18,0,0,0,136.28,147.59Z" transform="translate(-10.78 -4.22)"/><line class="cls-1" x1="50.5" y1="51.78" x2="25.5" y2="65.9"/><line class="cls-1" x1="100.5" y1="51.78" x2="125.5" y2="65.9"/><path class="cls-4" d="M20,55.1h.52v3.6h1.73v.44H20Z" transform="translate(-10.78 -4.22)"/><path class="cls-4" d="M25.35,57.67a1.42,1.42,0,0,1-1.45,1.54,1.38,1.38,0,0,1-1.39-1.5A1.41,1.41,0,0,1,24,56.17,1.38,1.38,0,0,1,25.35,57.67ZM23,57.7c0,.63.37,1.11.88,1.11s.89-.47.89-1.13c0-.49-.25-1.11-.87-1.11S23,57.14,23,57.7Z" transform="translate(-10.78 -4.22)"/><path class="cls-4" d="M26.18,56.24l.38,1.47a9.51,9.51,0,0,1,.22.93h0a8.52,8.52,0,0,1,.26-.92l.47-1.48H28l.45,1.45a9.22,9.22,0,0,1,.26,1h0c.05-.3.13-.6.22-.94l.41-1.46h.53l-.94,2.9h-.48L28,57.76c-.1-.33-.19-.62-.26-1h0a6.73,6.73,0,0,1-.27,1L27,59.14h-.48l-.88-2.9Z" transform="translate(-10.78 -4.22)"/><path class="cls-4" d="M31.59,57.32v.39H30.1v-.39Z" transform="translate(-10.78 -4.22)"/><path class="cls-4" d="M34.94,57.67a1.42,1.42,0,0,1-1.45,1.54,1.39,1.39,0,0,1-1.39-1.5,1.42,1.42,0,0,1,1.44-1.54A1.38,1.38,0,0,1,34.94,57.67Zm-2.3,0c0,.63.36,1.11.88,1.11s.88-.47.88-1.13c0-.49-.25-1.11-.87-1.11S32.64,57.14,32.64,57.7Z" transform="translate(-10.78 -4.22)"/><path class="cls-4" d="M35.61,57.14c0-.34,0-.63,0-.9H36l0,.57h0a.87.87,0,0,1,.8-.64l.15,0v.5l-.18,0a.74.74,0,0,0-.71.68,1.66,1.66,0,0,0,0,.24v1.55h-.52Z" transform="translate(-10.78 -4.22)"/><path class="cls-4" d="M40,54.88v3.51c0,.26,0,.55,0,.75h-.47l0-.5h0a1.08,1.08,0,0,1-1,.57,1.33,1.33,0,0,1-1.24-1.48,1.39,1.39,0,0,1,1.3-1.56,1,1,0,0,1,.88.45h0V54.88Zm-.52,2.54a.78.78,0,0,0,0-.22.76.76,0,0,0-.76-.61c-.54,0-.87.48-.87,1.12s.29,1.07.86,1.07a.78.78,0,0,0,.77-.63.8.8,0,0,0,0-.23Z" transform="translate(-10.78 -4.22)"/><path class="cls-4" d="M41.19,57.79a.92.92,0,0,0,1,1,1.85,1.85,0,0,0,.81-.15l.09.38a2.3,2.3,0,0,1-1,.18,1.35,1.35,0,0,1-1.43-1.46A1.41,1.41,0,0,1,42,56.17a1.23,1.23,0,0,1,1.2,1.37c0,.11,0,.19,0,.25Zm1.54-.38a.74.74,0,0,0-.73-.86.88.88,0,0,0-.81.86Z" transform="translate(-10.78 -4.22)"/><path class="cls-4" d="M43.9,57.14c0-.34,0-.63,0-.9h.47v.57h0a.87.87,0,0,1,.8-.64l.15,0v.5l-.18,0a.75.75,0,0,0-.71.68,1.66,1.66,0,0,0,0,.24v1.55H43.9Z" transform="translate(-10.78 -4.22)"/><path class="cls-4" d="M47.15,55.1h.52v1.95h0c.11-.16.22-.3.32-.43l1.23-1.52h.65l-1.46,1.71L50,59.14h-.61l-1.33-2-.39.44v1.54h-.52Z" transform="translate(-10.78 -4.22)"/><path class="cls-4" d="M124.76,55.1v1.69h2V55.1h.52v4h-.52V57.25h-2v1.89h-.52v-4Z" transform="translate(-10.78 -4.22)"/><path class="cls-4" d="M128.78,55.42a.33.33,0,1,1-.32-.33A.32.32,0,0,1,128.78,55.42Zm-.59,3.72v-2.9h.53v2.9Z" transform="translate(-10.78 -4.22)"/><path class="cls-4" d="M132.1,56.24c0,.21,0,.44,0,.8v1.68a1.68,1.68,0,0,1-.41,1.33,1.55,1.55,0,0,1-1.06.34,1.82,1.82,0,0,1-1-.24l.13-.4a1.62,1.62,0,0,0,.85.23c.54,0,.94-.28.94-1v-.33h0a1.06,1.06,0,0,1-.93.49,1.29,1.29,0,0,1-1.23-1.42,1.39,1.39,0,0,1,1.3-1.54,1,1,0,0,1,.91.51h0l0-.44Zm-.55,1.14a.63.63,0,0,0,0-.24.75.75,0,0,0-.74-.55c-.5,0-.86.42-.86,1.09s.29,1,.86,1a.78.78,0,0,0,.73-.54.9.9,0,0,0,0-.28Z" transform="translate(-10.78 -4.22)"/><path class="cls-4" d="M133,54.88h.53v1.81h0a1,1,0,0,1,.38-.37,1.06,1.06,0,0,1,.54-.15c.39,0,1,.24,1,1.24v1.73h-.53V57.47c0-.46-.17-.86-.67-.86a.77.77,0,0,0-.71.53.64.64,0,0,0,0,.25v1.75H133Z" transform="translate(-10.78 -4.22)"/><path class="cls-4" d="M137.5,57.32v.39H136v-.39Z" transform="translate(-10.78 -4.22)"/><path class="cls-4" d="M140.86,57.67a1.42,1.42,0,0,1-1.45,1.54,1.39,1.39,0,0,1-1.39-1.5,1.42,1.42,0,0,1,1.44-1.54A1.38,1.38,0,0,1,140.86,57.67Zm-2.31,0c0,.63.37,1.11.89,1.11s.88-.47.88-1.13c0-.49-.25-1.11-.87-1.11S138.55,57.14,138.55,57.7Z" transform="translate(-10.78 -4.22)"/><path class="cls-4" d="M141.52,57.14c0-.34,0-.63,0-.9H142l0,.57h0a.88.88,0,0,1,.81-.64l.15,0v.5l-.18,0a.74.74,0,0,0-.71.68,1.66,1.66,0,0,0,0,.24v1.55h-.53Z" transform="translate(-10.78 -4.22)"/><path class="cls-4" d="M145.93,54.88v3.51c0,.26,0,.55,0,.75h-.48l0-.5h0a1.1,1.1,0,0,1-1,.57,1.33,1.33,0,0,1-1.24-1.48,1.39,1.39,0,0,1,1.3-1.56,1,1,0,0,1,.87.45h0V54.88Zm-.53,2.54a.78.78,0,0,0,0-.22.78.78,0,0,0-.76-.61c-.55,0-.87.48-.87,1.12s.29,1.07.86,1.07a.79.79,0,0,0,.77-.63.82.82,0,0,0,0-.23Z" transform="translate(-10.78 -4.22)"/><path class="cls-4" d="M147.1,57.79a.93.93,0,0,0,1,1,1.8,1.8,0,0,0,.8-.15L149,59a2.21,2.21,0,0,1-1,.18,1.35,1.35,0,0,1-1.43-1.46A1.41,1.41,0,0,1,148,56.17a1.23,1.23,0,0,1,1.2,1.37,1.47,1.47,0,0,1,0,.25Zm1.55-.38a.75.75,0,0,0-.73-.86.88.88,0,0,0-.81.86Z" transform="translate(-10.78 -4.22)"/><path class="cls-4" d="M149.82,57.14c0-.34,0-.63,0-.9h.46l0,.57h0a.87.87,0,0,1,.8-.64l.15,0v.5l-.18,0a.74.74,0,0,0-.71.68,1.66,1.66,0,0,0,0,.24v1.55h-.52Z" transform="translate(-10.78 -4.22)"/><path class="cls-4" d="M153.07,55.1h.52v1.95h0a5.34,5.34,0,0,1,.32-.43l1.23-1.52h.65l-1.46,1.71,1.57,2.33h-.62l-1.33-2-.38.44v1.54h-.52Z" transform="translate(-10.78 -4.22)"/><path class="cls-4" d="M75.13,53.94c0-.3,0-.55,0-.79h.47l0,.48h0a1.08,1.08,0,0,1,1-.54c.4,0,1,.24,1,1.23v1.74h-.53V54.38c0-.46-.17-.85-.67-.85a.74.74,0,0,0-.71.54.8.8,0,0,0,0,.24v1.75h-.52Z" transform="translate(-10.78 -4.22)"/><path class="cls-4" d="M69.4,151.38l-1,2.93h-.54l-.94-2.9a2.69,2.69,0,0,0-.15-.39.4.4,0,0,0-.13-.17.57.57,0,0,0-.22-.1v-.19h1.55v.19a.66.66,0,0,0-.31.12.32.32,0,0,0-.08.23,1.64,1.64,0,0,0,0,.22c0,.08,0,.17.07.27l.62,2,1-3h.55l.85,3,.69-1.91a1.8,1.8,0,0,0,.09-.28,1.18,1.18,0,0,0,0-.25.36.36,0,0,0-.09-.26.6.6,0,0,0-.3-.13v-.19h1.36v.19l-.16.06-.11.08-.12.18c0,.08-.09.2-.16.37l-1.13,2.87h-.53Z" transform="translate(-10.78 -4.22)"/><path class="cls-4" d="M74.91,157H74v-.11l.12,0a.2.2,0,0,0,.07-.06.23.23,0,0,0,0-.11,1.21,1.21,0,0,0,0-.23v-.6c0-.11,0-.2,0-.29s0-.16,0-.21a.53.53,0,0,0-.06-.13.27.27,0,0,0-.07-.08L74,155a.28.28,0,0,0-.14,0,.47.47,0,0,0-.17,0l-.17.12a.66.66,0,0,0-.14.17.46.46,0,0,0,0,.2v.85a1.47,1.47,0,0,0,0,.27.24.24,0,0,0,.07.12.73.73,0,0,0,.17.07V157H72.7v-.11l.12,0a.2.2,0,0,0,.07-.06.43.43,0,0,0,0-.11,1.49,1.49,0,0,0,0-.24v-1.22a1.06,1.06,0,0,0,0-.14.2.2,0,0,0-.09-.09l-.16,0v-.12l.54,0h.14l0,.37h0a2.14,2.14,0,0,1,.28-.24.82.82,0,0,1,.2-.12.93.93,0,0,1,.23,0,.78.78,0,0,1,.22,0,.56.56,0,0,1,.17.09.44.44,0,0,1,.12.15.65.65,0,0,1,.07.21,1.3,1.3,0,0,1,0,.31v.86a1.42,1.42,0,0,0,0,.23.15.15,0,0,0,0,.1s0,.05.06.07l.15.06Z" transform="translate(-10.78 -4.22)"/><path class="cls-4" d="M69.4,112.15l-1,2.94h-.54l-.94-2.9a3,3,0,0,0-.15-.4.48.48,0,0,0-.13-.17.5.5,0,0,0-.22-.1v-.19h1.55v.19a.56.56,0,0,0-.31.13.29.29,0,0,0-.08.22,1.64,1.64,0,0,0,0,.22c0,.08,0,.17.07.27l.62,2,1-3h.55l.85,3,.69-1.91a1.52,1.52,0,0,0,.09-.28,1.18,1.18,0,0,0,0-.25.33.33,0,0,0-.09-.25.6.6,0,0,0-.3-.14v-.19h1.36v.19l-.16.06a.44.44,0,0,0-.11.09,1.12,1.12,0,0,0-.12.17c0,.08-.09.2-.16.37l-1.13,2.88h-.52Z" transform="translate(-10.78 -4.22)"/><path class="cls-4" d="M74.91,117.73H74v-.11l.13-.05a.17.17,0,0,0,.06-.06.23.23,0,0,0,0-.11,1.21,1.21,0,0,0,0-.23v-.6c0-.1,0-.2,0-.29l0-.21a.81.81,0,0,0-.06-.13.27.27,0,0,0-.07-.08.31.31,0,0,0-.1,0l-.14,0a.47.47,0,0,0-.17,0,.86.86,0,0,0-.17.13.44.44,0,0,0-.14.17.38.38,0,0,0,0,.19v.85a1.47,1.47,0,0,0,0,.27.24.24,0,0,0,.07.12.46.46,0,0,0,.17.07v.11H72.7v-.11l.12-.05a.13.13,0,0,0,.07-.06.43.43,0,0,0,0-.11,1.42,1.42,0,0,0,0-.23v-1.23a.42.42,0,0,0,0-.14.18.18,0,0,0-.09-.08.76.76,0,0,0-.16,0v-.12l.54,0h.14l0,.37h0a3.4,3.4,0,0,1,.28-.24.53.53,0,0,1,.21-.11.54.54,0,0,1,.22,0l.22,0a.56.56,0,0,1,.17.09.44.44,0,0,1,.12.15.65.65,0,0,1,.07.21,1.35,1.35,0,0,1,0,.31v.86a1.35,1.35,0,0,0,0,.23.18.18,0,0,0,0,.11s0,0,.06.06l.15.06Z" transform="translate(-10.78 -4.22)"/><path class="cls-4" d="M69.4,72.67l-1,2.94h-.54l-.94-2.9a3,3,0,0,0-.15-.4.59.59,0,0,0-.13-.17.41.41,0,0,0-.22-.09v-.19h1.55v.19a.66.66,0,0,0-.31.12.32.32,0,0,0-.08.23,1.8,1.8,0,0,0,0,.22l.07.27.62,2,1-3h.55l.85,3L71.35,73a1.8,1.8,0,0,0,.09-.28,1.27,1.27,0,0,0,0-.26.33.33,0,0,0-.09-.25.6.6,0,0,0-.3-.13v-.19h1.36v.19a.5.5,0,0,0-.16,0,.44.44,0,0,0-.11.09l-.12.17c0,.08-.09.21-.16.37l-1.13,2.88h-.52Z" transform="translate(-10.78 -4.22)"/><path class="cls-4" d="M74.91,78.25H74v-.11l.13,0,.06,0a.28.28,0,0,0,0-.12,1.13,1.13,0,0,0,0-.23V77.1c0-.11,0-.21,0-.29s0-.16,0-.22l-.06-.13-.07-.08-.1,0-.14,0a.33.33,0,0,0-.17,0,.53.53,0,0,0-.17.12.66.66,0,0,0-.14.17.41.41,0,0,0,0,.19v.85a1.6,1.6,0,0,0,0,.28.18.18,0,0,0,.07.11.46.46,0,0,0,.17.07v.11H72.7v-.11a.35.35,0,0,0,.12,0,.18.18,0,0,0,.07,0,.66.66,0,0,0,0-.11,1.49,1.49,0,0,0,0-.24V76.46a.49.49,0,0,0,0-.14.24.24,0,0,0-.09-.08.46.46,0,0,0-.16,0v-.12l.54,0h.14l0,.37h0a2.42,2.42,0,0,1,.28-.25.7.7,0,0,1,.21-.11.54.54,0,0,1,.22,0,.78.78,0,0,1,.22,0,.56.56,0,0,1,.17.09.41.41,0,0,1,.12.14.65.65,0,0,1,.07.21,1.45,1.45,0,0,1,0,.32v.85a1.35,1.35,0,0,0,0,.23.16.16,0,0,0,0,.11s0,0,.06.07l.15,0Z" transform="translate(-10.78 -4.22)"/><path class="cls-4" d="M97.31,153.15a2.11,2.11,0,0,0,0,.3.67.67,0,0,0,.08.17.39.39,0,0,0,.17.09.91.91,0,0,0,.26.06l.43,0V154H95.74v-.24l.54-.05a.66.66,0,0,0,.25-.09.34.34,0,0,0,.13-.16,1.44,1.44,0,0,0,0-.35v-2.77a.35.35,0,0,0,0-.2.18.18,0,0,0-.14-.06.61.61,0,0,0-.31.11c-.14.08-.31.18-.5.31l-.15-.26,1.6-1h.18c0,.22,0,.53,0,.91Z" transform="translate(-10.78 -4.22)"/><path class="cls-4" d="M100.77,152.51H99.18V152h1.59Z" transform="translate(-10.78 -4.22)"/><path class="cls-4" d="M103.87,151.49l-.9,2.57h-.48l-.82-2.53a1.76,1.76,0,0,0-.13-.35.37.37,0,0,0-.11-.15.67.67,0,0,0-.19-.09v-.16h1.35v.16a.64.64,0,0,0-.27.11.26.26,0,0,0-.07.2,1.23,1.23,0,0,0,0,.19,1.4,1.4,0,0,0,.06.24l.54,1.74.88-2.64h.48l.74,2.64.6-1.67a1.44,1.44,0,0,0,.08-.25.89.89,0,0,0,0-.22.31.31,0,0,0-.07-.22.57.57,0,0,0-.26-.12v-.16h1.19v.16l-.15.05-.09.08a.76.76,0,0,0-.1.15,1.9,1.9,0,0,0-.14.33l-1,2.51h-.46Z" transform="translate(-10.78 -4.22)"/><path class="cls-4" d="M108.69,156.38h-.78v-.1l.11,0,.06-.05a.62.62,0,0,0,0-.1,1.09,1.09,0,0,0,0-.2v-.78c0-.08,0-.14,0-.19a.37.37,0,0,0,0-.11s0-.05-.06-.07l-.08-.05h-.13a.4.4,0,0,0-.15,0,.44.44,0,0,0-.15.11.4.4,0,0,0-.12.15.27.27,0,0,0,0,.16v.75a.76.76,0,0,0,0,.24.21.21,0,0,0,.06.1l.14.06v.1h-.78v-.1l.11,0,.06-.05a.24.24,0,0,0,0-.1.91.91,0,0,0,0-.21V155a1.15,1.15,0,0,0,0-.2.28.28,0,0,0,0-.13.16.16,0,0,0-.07-.07l-.14,0v-.11l.47,0h.12l0,.33h0a2,2,0,0,1,.24-.22l.18-.1a.64.64,0,0,1,.2,0l.19,0,.15.08a.32.32,0,0,1,.1.13.75.75,0,0,1,.07.18,2,2,0,0,1,0,.28v.75a1,1,0,0,0,0,.2.2.2,0,0,0,0,.09l.06.06.13.05Z" transform="translate(-10.78 -4.22)"/><path class="cls-4" d="M97.31,114.67a2.11,2.11,0,0,0,0,.3.48.48,0,0,0,.08.16.32.32,0,0,0,.17.1,1.43,1.43,0,0,0,.26.06l.43,0v.25H95.74v-.25a4.64,4.64,0,0,0,.54,0,.66.66,0,0,0,.25-.09.34.34,0,0,0,.13-.16,1.5,1.5,0,0,0,0-.35V111.9a.35.35,0,0,0,0-.2.19.19,0,0,0-.14-.07.64.64,0,0,0-.31.12,4.64,4.64,0,0,0-.5.31l-.15-.26,1.6-1h.18c0,.22,0,.52,0,.91Z" transform="translate(-10.78 -4.22)"/><path class="cls-4" d="M100.77,114H99.18v-.53h1.59Z" transform="translate(-10.78 -4.22)"/><path class="cls-4" d="M103.87,113l-.9,2.57h-.48l-.82-2.54a1.61,1.61,0,0,0-.13-.34.37.37,0,0,0-.11-.15.48.48,0,0,0-.19-.09v-.17h1.35v.17a.64.64,0,0,0-.27.11.24.24,0,0,0-.07.2,1.23,1.23,0,0,0,0,.19,1.4,1.4,0,0,0,.06.24l.54,1.74.88-2.65h.48l.74,2.65.6-1.67a1.44,1.44,0,0,0,.08-.25.89.89,0,0,0,0-.22.29.29,0,0,0-.07-.22.57.57,0,0,0-.26-.12v-.17h1.19v.17l-.15.05a.32.32,0,0,0-.09.08.76.76,0,0,0-.1.15,2.11,2.11,0,0,0-.14.32l-1,2.52h-.46Z" transform="translate(-10.78 -4.22)"/><path class="cls-4" d="M108.69,117.89h-.78v-.09a.38.38,0,0,0,.11,0,.13.13,0,0,0,.06,0,.46.46,0,0,0,0-.09,1.22,1.22,0,0,0,0-.21v-.77c0-.08,0-.14,0-.19a.28.28,0,0,0,0-.11s0,0-.06-.07l-.08-.05h-.13a.4.4,0,0,0-.15,0,.56.56,0,0,0-.15.1.4.4,0,0,0-.12.15.33.33,0,0,0,0,.17v.75a.66.66,0,0,0,0,.23.2.2,0,0,0,.06.11l.14.06v.09h-.78v-.09a.38.38,0,0,0,.11,0,.13.13,0,0,0,.06,0,.19.19,0,0,0,0-.09,1.06,1.06,0,0,0,0-.21v-.87a1.15,1.15,0,0,0,0-.2.25.25,0,0,0,0-.13.16.16,0,0,0-.07-.07l-.14,0V116l.47,0h.12l0,.33h0a1.76,1.76,0,0,1,.24-.21.81.81,0,0,1,.18-.1.64.64,0,0,1,.2,0,.58.58,0,0,1,.19,0,.55.55,0,0,1,.15.08.32.32,0,0,1,.1.13.75.75,0,0,1,.07.18,1.87,1.87,0,0,1,0,.27v.76a.92.92,0,0,0,0,.19.22.22,0,0,0,0,.1l.06.06.13,0Z" transform="translate(-10.78 -4.22)"/><path class="cls-4" d="M97.31,74.7a2.11,2.11,0,0,0,0,.3.6.6,0,0,0,.08.16.4.4,0,0,0,.17.1l.26,0a2.46,2.46,0,0,0,.43,0v.25H95.74v-.25a4.13,4.13,0,0,0,.54,0,.67.67,0,0,0,.25-.08.37.37,0,0,0,.13-.17,1.35,1.35,0,0,0,0-.34V71.93a.33.33,0,0,0,0-.2.16.16,0,0,0-.14-.07.64.64,0,0,0-.31.12,3.45,3.45,0,0,0-.5.31l-.15-.27,1.6-.95h.18c0,.22,0,.52,0,.91Z" transform="translate(-10.78 -4.22)"/><path class="cls-4" d="M100.77,74.05H99.18v-.52h1.59Z" transform="translate(-10.78 -4.22)"/><path class="cls-4" d="M103.87,73l-.9,2.57h-.48l-.82-2.54a2.05,2.05,0,0,0-.13-.35.58.58,0,0,0-.11-.15.49.49,0,0,0-.19-.08v-.17h1.35v.17a.53.53,0,0,0-.27.11.24.24,0,0,0-.07.2,1.37,1.37,0,0,0,0,.19,1.12,1.12,0,0,0,.06.23l.54,1.75.88-2.65h.48L105,75l.6-1.67a1.44,1.44,0,0,0,.08-.25.89.89,0,0,0,0-.22.29.29,0,0,0-.07-.22.42.42,0,0,0-.26-.12v-.17h1.19v.17l-.15.05-.09.07-.1.16a1.73,1.73,0,0,0-.14.32l-1,2.52h-.46Z" transform="translate(-10.78 -4.22)"/><path class="cls-4" d="M108.69,77.92h-.78v-.1l.11,0,.06,0a.41.41,0,0,0,0-.1,1,1,0,0,0,0-.2v-.77c0-.08,0-.14,0-.19a.23.23,0,0,0,0-.11.14.14,0,0,0-.06-.07l-.08-.05-.13,0a.4.4,0,0,0-.15,0,.63.63,0,0,0-.15.11.4.4,0,0,0-.12.15.33.33,0,0,0,0,.17v.74a.69.69,0,0,0,0,.24.14.14,0,0,0,.06.1.26.26,0,0,0,.14.06v.1h-.78v-.1l.11,0,.06,0a.2.2,0,0,0,0-.1.88.88,0,0,0,0-.2v-.87a1.28,1.28,0,0,0,0-.21.21.21,0,0,0,0-.12.16.16,0,0,0-.07-.07.39.39,0,0,0-.14,0V76l.47,0h.12l0,.32h0a1.76,1.76,0,0,1,.24-.21.54.54,0,0,1,.18-.1.65.65,0,0,1,.2,0,.58.58,0,0,1,.19,0,.55.55,0,0,1,.15.08.29.29,0,0,1,.1.12.84.84,0,0,1,.07.19,1.87,1.87,0,0,1,0,.27v.75a1,1,0,0,0,0,.2.3.3,0,0,0,0,.1l.06,0a.32.32,0,0,0,.13,0Z" transform="translate(-10.78 -4.22)"/><line class="cls-1" x1="65.93" y1="114.81" x2="50.5" y2="114.81"/><path class="cls-4" d="M80.34,119a17.84,17.84,0,0,1-5.13-2.86l1,2.86-1,2.85A18.05,18.05,0,0,1,80.34,119Z" transform="translate(-10.78 -4.22)"/><line class="cls-1" x1="65.67" y1="75.9" x2="50.5" y2="75.9"/><path class="cls-4" d="M80.08,80.13A17.84,17.84,0,0,1,75,77.27l1,2.86L75,83A18.05,18.05,0,0,1,80.08,80.13Z" transform="translate(-10.78 -4.22)"/><line class="cls-1" x1="85.33" y1="75.9" x2="100.5" y2="75.9"/><path class="cls-4" d="M92.49,80.13A18.19,18.19,0,0,1,97.62,83l-1-2.85,1-2.86A18,18,0,0,1,92.49,80.13Z" transform="translate(-10.78 -4.22)"/><line class="cls-1" x1="85.33" y1="153.72" x2="100.5" y2="153.72"/><path class="cls-4" d="M92.49,158a18.19,18.19,0,0,1,5.13,2.85l-1-2.85,1-2.85A18.19,18.19,0,0,1,92.49,158Z" transform="translate(-10.78 -4.22)"/><line class="cls-1" x1="65.93" y1="153.72" x2="50.5" y2="153.72"/><path class="cls-4" d="M80.34,158a17.84,17.84,0,0,1-5.13-2.86l1,2.86-1,2.85A18.05,18.05,0,0,1,80.34,158Z" transform="translate(-10.78 -4.22)"/><path class="cls-4" d="M84.21,78.3h0a3.1,3.1,0,0,1,.48-.43,1.21,1.21,0,0,1,.35-.19,1.15,1.15,0,0,1,.37-.06,1.19,1.19,0,0,1,.39.05.73.73,0,0,1,.29.15.89.89,0,0,1,.21.26,1.52,1.52,0,0,1,.12.36,3.59,3.59,0,0,1,0,.53v1.47a2.32,2.32,0,0,0,0,.46.35.35,0,0,0,.1.19.7.7,0,0,0,.31.13v.19H85.38v-.19l.22-.08a.35.35,0,0,0,.11-.1.5.5,0,0,0,.07-.19,2.13,2.13,0,0,0,0-.4v-1a4,4,0,0,0,0-.79.65.65,0,0,0-.21-.42.61.61,0,0,0-.43-.13.64.64,0,0,0-.28.05,1.26,1.26,0,0,0-.29.2,1.11,1.11,0,0,0-.25.29.65.65,0,0,0-.08.31v1.5c0,.18,0,.3,0,.38a.53.53,0,0,0,.06.19.23.23,0,0,0,.12.12,1,1,0,0,0,.24.09v.19H83.1v-.19a1,1,0,0,0,.24-.09.32.32,0,0,0,.12-.11.38.38,0,0,0,.06-.19,3.25,3.25,0,0,0,0-.39V77.18c0-.25,0-.43,0-.53a1,1,0,0,0,0-.25.34.34,0,0,0-.07-.16.27.27,0,0,0-.12-.09.84.84,0,0,0-.28-.07v-.21l1,0h.23Z" transform="translate(-10.78 -4.22)"/><path class="cls-4" d="M88.47,84.13a.81.81,0,0,1-.74-.39,2.29,2.29,0,0,1-.24-1.18,3,3,0,0,1,.08-.72,1.87,1.87,0,0,1,.2-.51.88.88,0,0,1,.32-.29,1,1,0,0,1,.41-.1.81.81,0,0,1,.74.39,2.13,2.13,0,0,1,.25,1.16,2.33,2.33,0,0,1-.26,1.22A.85.85,0,0,1,88.47,84.13Zm-.53-1.64a3,3,0,0,0,.14,1.09c.09.24.23.35.42.35s.32-.11.41-.33a2.79,2.79,0,0,0,.13-1,4.88,4.88,0,0,0-.06-.85,1,1,0,0,0-.2-.46.34.34,0,0,0-.29-.14.39.39,0,0,0-.26.09.6.6,0,0,0-.17.27,1.6,1.6,0,0,0-.1.43C88,82.09,87.94,82.28,87.94,82.49Z" transform="translate(-10.78 -4.22)"/><path class="cls-4" d="M84.21,117.33h0a3.75,3.75,0,0,1,.48-.43,1.46,1.46,0,0,1,.35-.18.94.94,0,0,1,.37-.07,1.54,1.54,0,0,1,.39,0,.9.9,0,0,1,.29.16.85.85,0,0,1,.21.25,1.52,1.52,0,0,1,.12.36,3.71,3.71,0,0,1,0,.53v1.47a2.37,2.37,0,0,0,0,.47.32.32,0,0,0,.1.19.85.85,0,0,0,.31.13v.19H85.38v-.19l.22-.08a.52.52,0,0,0,.11-.1.58.58,0,0,0,.07-.19,2.13,2.13,0,0,0,0-.4v-1a4.21,4.21,0,0,0,0-.8.65.65,0,0,0-.21-.41.62.62,0,0,0-.43-.14.64.64,0,0,0-.28.06,1.18,1.18,0,0,0-.29.19,1.29,1.29,0,0,0-.25.29.72.72,0,0,0-.08.32v1.49c0,.18,0,.31,0,.38a.47.47,0,0,0,.06.19.29.29,0,0,0,.12.13,1,1,0,0,0,.24.09v.19H83.1v-.19a1,1,0,0,0,.24-.09.35.35,0,0,0,.18-.3,3.45,3.45,0,0,0,0-.4V116.2c0-.25,0-.42,0-.52a.9.9,0,0,0,0-.25.48.48,0,0,0-.07-.16.4.4,0,0,0-.12-.1L83,115.1v-.2l1,0h.23Z" transform="translate(-10.78 -4.22)"/><path class="cls-4" d="M88.78,122.52a1,1,0,0,0,0,.2.22.22,0,0,0,0,.11.23.23,0,0,0,.11.07l.17,0,.29,0v.16H87.73V123l.37,0a.49.49,0,0,0,.16-.06.18.18,0,0,0,.08-.11.63.63,0,0,0,0-.23v-1.85a.23.23,0,0,0,0-.13.12.12,0,0,0-.1,0,.47.47,0,0,0-.2.07l-.34.21-.1-.17,1.07-.64h.13c0,.15,0,.35,0,.61Z" transform="translate(-10.78 -4.22)"/><path class="cls-4" d="M84.21,156.24h0a3.75,3.75,0,0,1,.48-.43,1.46,1.46,0,0,1,.35-.18,1.16,1.16,0,0,1,.37-.07,1.54,1.54,0,0,1,.39.05.9.9,0,0,1,.29.16.85.85,0,0,1,.21.25,1.52,1.52,0,0,1,.12.36,3.71,3.71,0,0,1,0,.53v1.47a2.37,2.37,0,0,0,0,.47.39.39,0,0,0,.1.19.85.85,0,0,0,.31.13v.19H85.38v-.19l.22-.08a.52.52,0,0,0,.11-.1.58.58,0,0,0,.07-.19,2.13,2.13,0,0,0,0-.4v-1a4.21,4.21,0,0,0,0-.8.65.65,0,0,0-.21-.41.62.62,0,0,0-.43-.14.64.64,0,0,0-.28.06,1.18,1.18,0,0,0-.29.19,1.29,1.29,0,0,0-.25.29.72.72,0,0,0-.08.32v1.49c0,.18,0,.31,0,.38a.47.47,0,0,0,.06.19.25.25,0,0,0,.12.13,1,1,0,0,0,.24.09v.19H83.1v-.19a1,1,0,0,0,.24-.09.35.35,0,0,0,.18-.3,3.45,3.45,0,0,0,0-.4v-3.27c0-.25,0-.42,0-.52a.9.9,0,0,0,0-.25.34.34,0,0,0-.07-.16.4.4,0,0,0-.12-.1L83,154v-.2l1,0h.23Z" transform="translate(-10.78 -4.22)"/><path class="cls-4" d="M88.8,161.66H89l.11-.05a.24.24,0,0,0,.06-.08.91.91,0,0,0,.06-.16h.2l0,.67H87.49v-.11a3,3,0,0,1,.27-.49,4.8,4.8,0,0,1,.47-.59l.38-.45a1.74,1.74,0,0,0,.19-.28,1.28,1.28,0,0,0,.09-.22.83.83,0,0,0,0-.22.73.73,0,0,0-.06-.3.43.43,0,0,0-.17-.21.49.49,0,0,0-.28-.07.58.58,0,0,0-.57.47h-.28v-.43a2.55,2.55,0,0,1,.52-.19,1.77,1.77,0,0,1,.43-.06.94.94,0,0,1,.64.19.67.67,0,0,1,.22.53.85.85,0,0,1,0,.23,1,1,0,0,1-.07.2l-.14.21-.19.23-.36.39a4.62,4.62,0,0,0-.64.8Z" transform="translate(-10.78 -4.22)"/><circle class="cls-7" cx="220.61" cy="61.34" r="4.14"/><circle class="cls-7" cx="220.61" cy="98.81" r="4.14"/><circle class="cls-7" cx="220.61" cy="86.32" r="4.14"/><circle class="cls-7" cx="220.61" cy="73.83" r="4.14"/><circle class="cls-7" cx="220.61" cy="123.78" r="4.14"/><circle class="cls-7" cx="220.61" cy="111.29" r="4.14"/><circle class="cls-7" cx="220.61" cy="148.76" r="4.14"/><circle class="cls-7" cx="220.61" cy="136.27" r="4.14"/><circle class="cls-8" cx="252.18" cy="104.09" r="4.14"/><circle class="cls-8" cx="252.18" cy="91.6" r="4.14"/><circle class="cls-8" cx="252.18" cy="129.06" r="4.14"/><circle class="cls-8" cx="252.18" cy="116.58" r="4.14"/><circle class="cls-9" cx="185.56" cy="42.61" r="4.14"/><circle class="cls-9" cx="185.56" cy="80.07" r="4.14"/><circle class="cls-9" cx="185.56" cy="67.58" r="4.14"/><circle class="cls-9" cx="185.56" cy="55.1" r="4.14"/><circle class="cls-10" cx="185.56" cy="105.05" r="4.14"/><circle class="cls-10" cx="185.56" cy="92.56" r="4.14"/><circle class="cls-10" cx="185.56" cy="130.03" r="4.14"/><circle class="cls-10" cx="185.56" cy="117.54" r="4.14"/><circle class="cls-11" cx="185.56" cy="142.51" r="4.14"/><circle class="cls-11" cx="185.56" cy="167.49" r="4.14"/><circle class="cls-11" cx="185.56" cy="155" r="4.14"/><line class="cls-12" x1="189.69" y1="42.61" x2="216.48" y2="61.34"/><line class="cls-12" x1="216.48" y1="73.83" x2="189.69" y2="42.61"/><line class="cls-12" x1="216.48" y1="86.32" x2="189.69" y2="42.61"/><line class="cls-12" x1="216.48" y1="98.81" x2="189.69" y2="42.61"/><line class="cls-12" x1="216.48" y1="111.29" x2="189.69" y2="42.61"/><line class="cls-12" x1="216.48" y1="123.78" x2="189.69" y2="42.61"/><line class="cls-12" x1="216.48" y1="136.27" x2="189.69" y2="42.61"/><line class="cls-12" x1="216.48" y1="148.76" x2="189.69" y2="42.61"/><line class="cls-12" x1="189.69" y1="55.1" x2="216.48" y2="61.34"/><line class="cls-12" x1="216.48" y1="73.83" x2="189.69" y2="55.1"/><line class="cls-12" x1="216.48" y1="86.32" x2="189.69" y2="55.1"/><line class="cls-12" x1="216.48" y1="98.81" x2="189.69" y2="55.1"/><line class="cls-12" x1="216.48" y1="111.29" x2="189.69" y2="55.1"/><line class="cls-12" x1="216.48" y1="123.78" x2="189.69" y2="55.1"/><line class="cls-12" x1="216.48" y1="136.27" x2="189.69" y2="55.1"/><line class="cls-12" x1="216.48" y1="148.76" x2="189.69" y2="55.1"/><line class="cls-12" x1="189.69" y1="67.58" x2="216.48" y2="61.34"/><line class="cls-12" x1="216.48" y1="73.83" x2="189.69" y2="67.58"/><line class="cls-12" x1="216.48" y1="86.32" x2="189.69" y2="67.58"/><line class="cls-12" x1="216.48" y1="98.81" x2="189.69" y2="67.58"/><line class="cls-12" x1="216.48" y1="111.29" x2="189.69" y2="67.58"/><line class="cls-12" x1="216.48" y1="123.78" x2="189.69" y2="67.58"/><line class="cls-12" x1="216.48" y1="134.16" x2="189.69" y2="67.58"/><line class="cls-12" x1="216.48" y1="148.76" x2="189.69" y2="67.58"/><line class="cls-12" x1="189.69" y1="80.07" x2="216.48" y2="61.34"/><line class="cls-12" x1="216.48" y1="73.83" x2="189.69" y2="80.07"/><line class="cls-12" x1="216.48" y1="86.32" x2="189.69" y2="80.07"/><line class="cls-12" x1="216.48" y1="98.81" x2="189.69" y2="80.07"/><line class="cls-12" x1="216.48" y1="111.29" x2="189.69" y2="80.07"/><line class="cls-12" x1="216.48" y1="123.78" x2="189.69" y2="80.07"/><line class="cls-12" x1="216.48" y1="136.27" x2="189.69" y2="80.07"/><line class="cls-12" x1="216.48" y1="148.76" x2="189.69" y2="80.07"/><line class="cls-12" x1="189.69" y1="92.56" x2="216.48" y2="61.34"/><line class="cls-12" x1="216.48" y1="73.83" x2="189.69" y2="92.56"/><line class="cls-12" x1="216.48" y1="98.81" x2="189.69" y2="92.56"/><line class="cls-12" x1="216.48" y1="86.32" x2="189.69" y2="92.56"/><line class="cls-12" x1="216.48" y1="111.29" x2="189.69" y2="92.56"/><line class="cls-12" x1="216.48" y1="123.78" x2="189.69" y2="92.56"/><line class="cls-12" x1="216.48" y1="136.27" x2="189.69" y2="92.56"/><line class="cls-12" x1="216.48" y1="148.76" x2="189.69" y2="92.56"/><line class="cls-12" x1="189.69" y1="105.05" x2="216.48" y2="61.34"/><line class="cls-12" x1="216.48" y1="73.83" x2="189.69" y2="105.05"/><line class="cls-12" x1="216.48" y1="86.32" x2="189.69" y2="105.05"/><line class="cls-12" x1="216.48" y1="98.81" x2="189.69" y2="105.05"/><line class="cls-12" x1="216.48" y1="111.29" x2="189.69" y2="105.05"/><circle class="cls-11" cx="185.56" cy="179.98" r="4.14"/><circle class="cls-7" cx="220.6" cy="161.25" r="4.14"/><line class="cls-12" x1="189.69" y1="105.05" x2="216.46" y2="161.25"/><line class="cls-12" x1="216.48" y1="123.78" x2="189.69" y2="105.05"/><line class="cls-12" x1="216.48" y1="136.27" x2="189.69" y2="105.05"/><line class="cls-12" x1="216.48" y1="148.76" x2="189.69" y2="105.05"/><line class="cls-12" x1="189.69" y1="117.54" x2="216.48" y2="73.83"/><line class="cls-12" x1="216.48" y1="86.32" x2="189.69" y2="117.54"/><line class="cls-12" x1="216.48" y1="98.81" x2="189.69" y2="117.54"/><line class="cls-12" x1="216.48" y1="111.29" x2="189.69" y2="117.54"/><line class="cls-12" x1="216.48" y1="123.78" x2="189.69" y2="117.54"/><line class="cls-12" x1="216.48" y1="136.27" x2="189.69" y2="117.54"/><line class="cls-12" x1="216.48" y1="148.76" x2="189.69" y2="117.54"/><line class="cls-12" x1="216.46" y1="161.25" x2="189.69" y2="117.54"/><line class="cls-12" x1="189.69" y1="67.58" x2="216.46" y2="161.25"/><line class="cls-12" x1="189.69" y1="80.07" x2="216.46" y2="161.25"/><line class="cls-12" x1="189.69" y1="130.03" x2="216.48" y2="73.83"/><line class="cls-12" x1="216.48" y1="86.32" x2="189.69" y2="130.03"/><line class="cls-12" x1="216.48" y1="98.81" x2="189.69" y2="130.03"/><line class="cls-12" x1="216.48" y1="111.29" x2="189.69" y2="130.03"/><line class="cls-12" x1="216.48" y1="123.78" x2="189.69" y2="130.03"/><line class="cls-12" x1="216.48" y1="136.27" x2="189.69" y2="130.03"/><line class="cls-12" x1="216.48" y1="148.76" x2="189.69" y2="130.03"/><line class="cls-12" x1="216.46" y1="161.25" x2="189.69" y2="130.03"/><line class="cls-12" x1="189.69" y1="142.51" x2="216.48" y2="86.32"/><line class="cls-12" x1="216.48" y1="98.81" x2="189.69" y2="142.51"/><line class="cls-12" x1="216.48" y1="111.29" x2="189.69" y2="142.51"/><line class="cls-12" x1="216.48" y1="123.78" x2="189.69" y2="142.51"/><line class="cls-12" x1="216.48" y1="136.27" x2="189.69" y2="142.51"/><line class="cls-12" x1="216.48" y1="148.76" x2="189.69" y2="142.51"/><line class="cls-12" x1="216.46" y1="161.25" x2="189.69" y2="142.51"/><line class="cls-12" x1="189.69" y1="155" x2="216.48" y2="86.32"/><line class="cls-12" x1="216.48" y1="98.81" x2="189.69" y2="155"/><line class="cls-12" x1="216.48" y1="111.29" x2="189.69" y2="155"/><line class="cls-12" x1="216.48" y1="123.78" x2="189.69" y2="155"/><line class="cls-12" x1="216.48" y1="136.27" x2="189.69" y2="155"/><line class="cls-12" x1="216.48" y1="148.76" x2="189.69" y2="155"/><line class="cls-12" x1="216.46" y1="161.25" x2="189.69" y2="155"/><line class="cls-12" x1="189.69" y1="167.49" x2="216.48" y2="98.81"/><line class="cls-12" x1="216.48" y1="111.29" x2="189.69" y2="167.49"/><line class="cls-12" x1="216.48" y1="123.78" x2="189.69" y2="167.49"/><line class="cls-12" x1="216.48" y1="136.27" x2="189.69" y2="167.49"/><line class="cls-12" x1="216.48" y1="148.76" x2="189.69" y2="167.49"/><line class="cls-12" x1="216.46" y1="161.25" x2="189.69" y2="167.49"/><line class="cls-12" x1="189.69" y1="179.98" x2="216.46" y2="161.25"/><line class="cls-12" x1="217.06" y1="146.65" x2="189.69" y2="179.98"/><line class="cls-12" x1="216.48" y1="136.27" x2="189.69" y2="167.49"/><line class="cls-12" x1="216.48" y1="123.78" x2="189.69" y2="167.49"/><line class="cls-12" x1="216.48" y1="111.29" x2="189.69" y2="179.98"/><line class="cls-12" x1="216.48" y1="98.81" x2="189.69" y2="179.98"/><line class="cls-12" x1="216.48" y1="136.27" x2="189.69" y2="179.98"/><line class="cls-12" x1="224.75" y1="61.34" x2="248.05" y2="91.6"/><line class="cls-12" x1="248.05" y1="104.09" x2="224.75" y2="61.34"/><line class="cls-12" x1="248.05" y1="116.58" x2="224.75" y2="61.34"/><line class="cls-12" x1="248.05" y1="129.06" x2="224.75" y2="61.34"/><line class="cls-12" x1="224.75" y1="73.83" x2="248.05" y2="91.6"/><line class="cls-12" x1="248.05" y1="104.09" x2="224.75" y2="73.83"/><line class="cls-12" x1="248.05" y1="116.58" x2="224.75" y2="73.83"/><line class="cls-12" x1="248.05" y1="129.06" x2="224.75" y2="73.83"/><line class="cls-12" x1="224.75" y1="86.32" x2="248.05" y2="91.6"/><line class="cls-12" x1="248.05" y1="104.09" x2="224.75" y2="86.32"/><line class="cls-12" x1="248.05" y1="116.58" x2="224.75" y2="86.32"/><line class="cls-12" x1="248.05" y1="129.06" x2="224.75" y2="86.32"/><line class="cls-12" x1="224.75" y1="98.81" x2="248.05" y2="91.6"/><line class="cls-12" x1="248.05" y1="104.09" x2="224.75" y2="98.81"/><line class="cls-12" x1="248.05" y1="116.58" x2="224.75" y2="98.81"/><line class="cls-12" x1="248.05" y1="129.06" x2="224.75" y2="98.81"/><line class="cls-12" x1="224.75" y1="111.29" x2="248.05" y2="91.6"/><line class="cls-12" x1="248.05" y1="104.09" x2="224.75" y2="111.29"/><line class="cls-12" x1="248.05" y1="116.58" x2="224.75" y2="111.29"/><line class="cls-12" x1="248.05" y1="129.06" x2="224.75" y2="111.29"/><line class="cls-12" x1="224.75" y1="123.78" x2="248.05" y2="91.6"/><line class="cls-12" x1="248.05" y1="104.09" x2="224.75" y2="123.78"/><line class="cls-12" x1="248.05" y1="116.58" x2="224.75" y2="123.78"/><line class="cls-12" x1="248.05" y1="129.06" x2="224.75" y2="123.78"/><line class="cls-12" x1="224.75" y1="136.27" x2="248.05" y2="91.6"/><line class="cls-12" x1="248.05" y1="104.09" x2="224.75" y2="136.27"/><line class="cls-12" x1="248.05" y1="116.58" x2="224.75" y2="136.27"/><line class="cls-12" x1="248.05" y1="129.06" x2="224.75" y2="136.27"/><line class="cls-12" x1="224.75" y1="148.76" x2="248.05" y2="91.6"/><line class="cls-12" x1="248.05" y1="104.09" x2="224.75" y2="148.76"/><line class="cls-12" x1="248.05" y1="116.58" x2="224.75" y2="148.76"/><line class="cls-12" x1="248.05" y1="129.06" x2="224.75" y2="148.76"/><line class="cls-12" x1="224.73" y1="161.25" x2="248.05" y2="129.06"/><line class="cls-12" x1="248.05" y1="116.58" x2="224.73" y2="161.25"/><line class="cls-12" x1="248.05" y1="104.09" x2="224.73" y2="161.25"/><line class="cls-12" x1="248.05" y1="91.6" x2="224.73" y2="161.25"/><rect class="cls-13" x="278.32" y="99.56" width="80" height="10" transform="translate(202.98 418.66) rotate(-90)"/><rect class="cls-14" x="322.13" y="99.5" width="80" height="10" transform="translate(246.85 462.4) rotate(-90)"/><path class="cls-4" d="M342.33,105.08l-.38.65-1.51-1.06.17,1.84h-.77l.18-1.84-1.51,1.06-.39-.65,1.67-.78-1.67-.78.39-.66,1.51,1.06-.18-1.83h.77l-.17,1.83,1.51-1.06.38.66-1.67.78Z" transform="translate(-10.78 -4.22)"/><path class="cls-4" d="M297.39,103.33l-4.07,4.94h4.73a2,2,0,0,0,1.34-.39,3.65,3.65,0,0,0,.75-1.76h1.19l-.24,4H290.54v-.63l4.88-5.86-4.57-6.18v-.63h10.28v3.53h-1.19a4.49,4.49,0,0,0-1-2,2,2,0,0,0-1.33-.48h-3.84l3.63,4.81Z" transform="translate(-10.78 -4.22)"/><path class="cls-4" d="M46.08,10v1.35H45.6a2.27,2.27,0,0,0-.3-.68,1.07,1.07,0,0,0-.42-.35,1.28,1.28,0,0,0-.58-.11,1.35,1.35,0,0,0-.89.33,2.27,2.27,0,0,0-.62,1,5.16,5.16,0,0,0-.22,1.62,6.47,6.47,0,0,0,.18,1.64,2.15,2.15,0,0,0,.55,1,1.22,1.22,0,0,0,.89.34,1.73,1.73,0,0,0,.65-.11,1.08,1.08,0,0,0,.43-.37,3.2,3.2,0,0,0,.33-.73h.48v1.4a7.1,7.1,0,0,1-.94.18,8.55,8.55,0,0,1-1.06.06,2.2,2.2,0,0,1-1.87-.84,4.13,4.13,0,0,1-.64-2.5,4.76,4.76,0,0,1,.33-1.84,2.73,2.73,0,0,1,1-1.21,2.67,2.67,0,0,1,1.53-.43,5.23,5.23,0,0,1,.82.05A5.64,5.64,0,0,1,46.08,10Z" transform="translate(-10.78 -4.22)"/><path class="cls-4" d="M49.22,16.58a2,2,0,0,1-1.56-.6,2.62,2.62,0,0,1-.53-1.77,2.94,2.94,0,0,1,.28-1.36,1.94,1.94,0,0,1,.77-.83,2.28,2.28,0,0,1,1.11-.27,2,2,0,0,1,1.59.61,2.58,2.58,0,0,1,.53,1.74,3.1,3.1,0,0,1-.27,1.37,1.76,1.76,0,0,1-.76.83A2.29,2.29,0,0,1,49.22,16.58Zm-1.17-2.47a3,3,0,0,0,.32,1.54,1.07,1.07,0,0,0,1.48.39,1.3,1.3,0,0,0,.37-.43,2.26,2.26,0,0,0,.21-.62,4.52,4.52,0,0,0,.06-.74,3.75,3.75,0,0,0-.16-1.2,1.46,1.46,0,0,0-.43-.69,1,1,0,0,0-.63-.22,1,1,0,0,0-.9.51A2.8,2.8,0,0,0,48.05,14.11Z" transform="translate(-10.78 -4.22)"/><path class="cls-4" d="M57.16,16.5H55.23v-.24a1.44,1.44,0,0,0,.27-.1.33.33,0,0,0,.14-.12.55.55,0,0,0,.09-.24,3.07,3.07,0,0,0,0-.5V14a6,6,0,0,0,0-.62,2.58,2.58,0,0,0-.06-.46,1,1,0,0,0-.11-.27.66.66,0,0,0-.16-.17.72.72,0,0,0-.21-.12,1.23,1.23,0,0,0-.31,0,.94.94,0,0,0-.36.08,1.48,1.48,0,0,0-.37.26,1.11,1.11,0,0,0-.3.37.88.88,0,0,0-.09.41v1.82a2.53,2.53,0,0,0,0,.58.39.39,0,0,0,.14.25,1,1,0,0,0,.36.15v.24H52.4v-.24a1.44,1.44,0,0,0,.27-.1.53.53,0,0,0,.14-.12.74.74,0,0,0,.08-.24,2.12,2.12,0,0,0,0-.5V13.17c0-.21,0-.38,0-.51a.83.83,0,0,0-.07-.3.37.37,0,0,0-.18-.17,1.41,1.41,0,0,0-.34-.1v-.26l1.14,0h.3l-.05.8.07,0a4.72,4.72,0,0,1,.58-.53,2.46,2.46,0,0,1,.45-.24,1.27,1.27,0,0,1,.48-.08,1.68,1.68,0,0,1,.47.06,1,1,0,0,1,.63.5,1.49,1.49,0,0,1,.15.45,3.21,3.21,0,0,1,.05.67v1.84c0,.23,0,.39,0,.49a.79.79,0,0,0,.07.23.32.32,0,0,0,.14.14,1.16,1.16,0,0,0,.33.12Z" transform="translate(-10.78 -4.22)"/><path class="cls-4" d="M59.4,11.83v.24a1.26,1.26,0,0,0-.32.11.33.33,0,0,0-.14.12.43.43,0,0,0,0,.21,1.41,1.41,0,0,0,0,.28c0,.09.06.21.11.33l.84,2.47,1-2.36a3.24,3.24,0,0,0,.14-.39,1.57,1.57,0,0,0,0-.28.46.46,0,0,0-.11-.32,1,1,0,0,0-.41-.17v-.24h1.83v.24a.79.79,0,0,0-.29.12,1,1,0,0,0-.21.26,3.52,3.52,0,0,0-.24.48L60,16.55H59.4L58.07,12.9a4,4,0,0,0-.21-.51,1,1,0,0,0-.18-.21,1,1,0,0,0-.28-.11v-.24Z" transform="translate(-10.78 -4.22)"/><path class="cls-4" d="M64.75,16.58A2,2,0,0,1,63.2,16a2.62,2.62,0,0,1-.53-1.77A2.94,2.94,0,0,1,63,12.85a1.88,1.88,0,0,1,.77-.83,2.23,2.23,0,0,1,1.11-.27,2,2,0,0,1,1.58.61A2.54,2.54,0,0,1,67,14.1a3.1,3.1,0,0,1-.27,1.37,1.81,1.81,0,0,1-.76.83A2.3,2.3,0,0,1,64.75,16.58Zm-1.16-2.47a3,3,0,0,0,.32,1.54,1,1,0,0,0,.92.54,1,1,0,0,0,.55-.15,1.22,1.22,0,0,0,.38-.43A2.26,2.26,0,0,0,66,15a3.64,3.64,0,0,0,.07-.74,4.05,4.05,0,0,0-.16-1.2,1.54,1.54,0,0,0-.43-.69,1,1,0,0,0-.63-.22,1,1,0,0,0-.9.51A2.8,2.8,0,0,0,63.59,14.11Z" transform="translate(-10.78 -4.22)"/><path class="cls-4" d="M69.24,15.28a2.53,2.53,0,0,0,0,.58.44.44,0,0,0,.15.25.88.88,0,0,0,.36.15v.24H67.85v-.24a1,1,0,0,0,.34-.13.33.33,0,0,0,.13-.16.83.83,0,0,0,.06-.26c0-.11,0-.25,0-.43V11.19c0-.31,0-.53,0-.65a1.3,1.3,0,0,0,0-.31.71.71,0,0,0-.08-.21.33.33,0,0,0-.15-.11,1.68,1.68,0,0,0-.35-.09V9.56L69,9.51h.29Z" transform="translate(-10.78 -4.22)"/><path class="cls-4" d="M70.53,11.83h1.4v2.49a6.46,6.46,0,0,0,0,.87,1.28,1.28,0,0,0,.13.45.75.75,0,0,0,.25.25.82.82,0,0,0,.44.1.86.86,0,0,0,.36-.07,1.29,1.29,0,0,0,.38-.26,1.19,1.19,0,0,0,.3-.36.93.93,0,0,0,.09-.42V13.05c0-.19,0-.33,0-.42a1.14,1.14,0,0,0,0-.23.64.64,0,0,0-.08-.14l-.13-.09-.28-.1v-.24h1.39v3.34c0,.25,0,.43,0,.54a.77.77,0,0,0,.06.26.33.33,0,0,0,.15.16,1.43,1.43,0,0,0,.37.12v.25l-1.12.05h-.3l0-.8-.07,0a3.35,3.35,0,0,1-.78.65,1.55,1.55,0,0,1-.74.2,1.36,1.36,0,0,1-.73-.18,1.07,1.07,0,0,1-.43-.52,2.79,2.79,0,0,1-.14-1V13.05a3.43,3.43,0,0,0,0-.56.45.45,0,0,0-.12-.25,1,1,0,0,0-.4-.17Z" transform="translate(-10.78 -4.22)"/><path class="cls-4" d="M75.88,12.08a1,1,0,0,0,.4-.14.61.61,0,0,0,.23-.25,1.18,1.18,0,0,0,.14-.39c0-.15.06-.38.1-.67h.69v1.2H79v.5H77.44V14.5a6.73,6.73,0,0,0,0,.75,1.07,1.07,0,0,0,.15.44.58.58,0,0,0,.24.23.73.73,0,0,0,.35.07.91.91,0,0,0,.37-.08,1.36,1.36,0,0,0,.34-.23l.22.26a2.44,2.44,0,0,1-.66.49,1.46,1.46,0,0,1-.64.15,1.15,1.15,0,0,1-.94-.37A1.86,1.86,0,0,1,76.6,15V12.33h-.72Z" transform="translate(-10.78 -4.22)"/><path class="cls-4" d="M79.56,16.26a1.79,1.79,0,0,0,.27-.1A.37.37,0,0,0,80,16a.55.55,0,0,0,.09-.24,3.07,3.07,0,0,0,0-.5V12.66a.83.83,0,0,0-.07-.3.37.37,0,0,0-.18-.17,1.41,1.41,0,0,0-.34-.1v-.26l1.14,0h.29v3.49a3.31,3.31,0,0,0,0,.58.44.44,0,0,0,.15.25,1,1,0,0,0,.36.15v.24H79.56ZM81,9.92v.95h-.89V9.92Z" transform="translate(-10.78 -4.22)"/><path class="cls-4" d="M84.46,16.58a2,2,0,0,1-1.55-.6,2.57,2.57,0,0,1-.54-1.77,2.94,2.94,0,0,1,.29-1.36,1.86,1.86,0,0,1,.76-.83,2.29,2.29,0,0,1,1.12-.27,2,2,0,0,1,1.58.61,2.54,2.54,0,0,1,.54,1.74,3.1,3.1,0,0,1-.27,1.37,1.81,1.81,0,0,1-.76.83A2.3,2.3,0,0,1,84.46,16.58ZM83.3,14.11a3,3,0,0,0,.32,1.54,1.06,1.06,0,0,0,1.47.39,1.19,1.19,0,0,0,.37-.43,2,2,0,0,0,.21-.62,4.52,4.52,0,0,0,.06-.74,4.08,4.08,0,0,0-.15-1.2,1.47,1.47,0,0,0-.44-.69.94.94,0,0,0-.62-.22,1,1,0,0,0-.91.51A2.81,2.81,0,0,0,83.3,14.11Z" transform="translate(-10.78 -4.22)"/><path class="cls-4" d="M92.4,16.5H90.48v-.24l.27-.1a.53.53,0,0,0,.14-.12A.71.71,0,0,0,91,15.8a3.07,3.07,0,0,0,0-.5V14c0-.23,0-.43,0-.62a2.49,2.49,0,0,0-.07-.46,1,1,0,0,0-.11-.27.52.52,0,0,0-.16-.17.82.82,0,0,0-.2-.12,1.23,1.23,0,0,0-.31,0,.86.86,0,0,0-.36.08,1.52,1.52,0,0,0-.38.26,1.11,1.11,0,0,0-.3.37.88.88,0,0,0-.09.41v1.82a2.53,2.53,0,0,0,0,.58.4.4,0,0,0,.15.25.88.88,0,0,0,.36.15v.24H87.64v-.24a1.44,1.44,0,0,0,.27-.1.41.41,0,0,0,.14-.12.55.55,0,0,0,.09-.24,3.07,3.07,0,0,0,0-.5V13.17c0-.21,0-.38,0-.51a.83.83,0,0,0-.07-.3.37.37,0,0,0-.18-.17,1.45,1.45,0,0,0-.33-.1v-.26l1.14,0H89l-.06.8.07,0a5.59,5.59,0,0,1,.58-.53,2.46,2.46,0,0,1,.45-.24,1.27,1.27,0,0,1,.48-.08,1.75,1.75,0,0,1,.48.06,1,1,0,0,1,.36.19.88.88,0,0,1,.26.31,1.83,1.83,0,0,1,.16.45,4.08,4.08,0,0,1,0,.67v1.84a3.05,3.05,0,0,0,0,.49.45.45,0,0,0,.07.23.32.32,0,0,0,.14.14,1.2,1.2,0,0,0,.32.12Z" transform="translate(-10.78 -4.22)"/><path class="cls-4" d="M96.05,15.8l-.08,0a2.94,2.94,0,0,1-.8.62,1.76,1.76,0,0,1-.79.18,1.48,1.48,0,0,1-.65-.14,1,1,0,0,1-.44-.41,1.16,1.16,0,0,1-.15-.6,1.21,1.21,0,0,1,.71-1.1A4.91,4.91,0,0,1,96,13.88v-.32a2.79,2.79,0,0,0-.09-.8.79.79,0,0,0-.31-.43,1,1,0,0,0-.56-.14.94.94,0,0,0-.62.2A1.24,1.24,0,0,0,94,13H93.4v-.63a5,5,0,0,1,.78-.36,3.38,3.38,0,0,1,.62-.18,2.73,2.73,0,0,1,.64-.07,1.67,1.67,0,0,1,.77.15,1,1,0,0,1,.44.48,2.32,2.32,0,0,1,.15.95v2.21l0,.28a.52.52,0,0,0,.08.2.44.44,0,0,0,.14.13,1.31,1.31,0,0,0,.31.11v.24H96ZM96,14.28a3.32,3.32,0,0,0-1.48.26.81.81,0,0,0-.49.77.74.74,0,0,0,.11.44.6.6,0,0,0,.28.22,1.27,1.27,0,0,0,.41.06,1.22,1.22,0,0,0,.6-.16,1.27,1.27,0,0,0,.42-.41A1,1,0,0,0,96,15Z" transform="translate(-10.78 -4.22)"/><path class="cls-4" d="M99.41,15.28a2.53,2.53,0,0,0,0,.58.44.44,0,0,0,.15.25.88.88,0,0,0,.36.15v.24H98v-.24a1,1,0,0,0,.34-.13.33.33,0,0,0,.13-.16.83.83,0,0,0,.06-.26,2.62,2.62,0,0,0,0-.43V11.19c0-.31,0-.53,0-.65a.93.93,0,0,0,0-.31.71.71,0,0,0-.08-.21.33.33,0,0,0-.15-.11,1.68,1.68,0,0,0-.35-.09V9.56l1.18-.05h.29Z" transform="translate(-10.78 -4.22)"/><path class="cls-4" d="M104.33,15.28a2.53,2.53,0,0,0,0,.58.36.36,0,0,0,.15.25.89.89,0,0,0,.35.15v.24h-1.93v-.24a1,1,0,0,0,.34-.13.4.4,0,0,0,.13-.16.83.83,0,0,0,.06-.26c0-.11,0-.25,0-.43V11.19c0-.31,0-.53,0-.65a1.3,1.3,0,0,0,0-.31.51.51,0,0,0-.09-.21.25.25,0,0,0-.15-.11,1.55,1.55,0,0,0-.34-.09V9.56L104,9.51h.3Z" transform="translate(-10.78 -4.22)"/><path class="cls-4" d="M108.56,15.8l-.07,0a3.1,3.1,0,0,1-.8.62,1.79,1.79,0,0,1-.79.18,1.53,1.53,0,0,1-.66-.14,1,1,0,0,1-.43-.41,1.16,1.16,0,0,1-.15-.6,1.2,1.2,0,0,1,.7-1.1,5,5,0,0,1,2.12-.45v-.32a2.44,2.44,0,0,0-.1-.8.75.75,0,0,0-.31-.43,1,1,0,0,0-.56-.14.91.91,0,0,0-.61.2,1.17,1.17,0,0,0-.35.6h-.64v-.63a5,5,0,0,1,.78-.36,3.73,3.73,0,0,1,.63-.18,2.65,2.65,0,0,1,.63-.07,1.75,1.75,0,0,1,.78.15,1,1,0,0,1,.44.48,2.53,2.53,0,0,1,.14.95V15c0,.24,0,.41,0,.51a1.27,1.27,0,0,0,0,.28.52.52,0,0,0,.07.2.44.44,0,0,0,.14.13,1.51,1.51,0,0,0,.31.11v.24h-1.33Zm-.08-1.52a3.37,3.37,0,0,0-1.49.26.87.87,0,0,0-.38,1.21.63.63,0,0,0,.29.22,1.2,1.2,0,0,0,.4.06,1.23,1.23,0,0,0,1-.57,1,1,0,0,0,.15-.5Z" transform="translate(-10.78 -4.22)"/><path class="cls-4" d="M112.49,16.9a6.15,6.15,0,0,1-.52,1,2,2,0,0,1-.56.57,1.29,1.29,0,0,1-.72.19,3.49,3.49,0,0,1-.61-.06v-1h.43a.61.61,0,0,0,.15.28.37.37,0,0,0,.25.08.6.6,0,0,0,.27-.06,1.16,1.16,0,0,0,.24-.19,2.65,2.65,0,0,0,.29-.42c.11-.19.24-.43.38-.72l-1.37-3.68a4.94,4.94,0,0,0-.21-.49.69.69,0,0,0-.18-.22.67.67,0,0,0-.28-.12v-.24h2v.24a1.13,1.13,0,0,0-.32.11.3.3,0,0,0-.14.13.41.41,0,0,0,0,.21,1.26,1.26,0,0,0,0,.27,1.73,1.73,0,0,0,.1.33l.87,2.45,1-2.34a2.28,2.28,0,0,0,.13-.36,1.18,1.18,0,0,0,0-.31.42.42,0,0,0-.12-.32,1,1,0,0,0-.39-.17v-.24H115v.24a.79.79,0,0,0-.29.12,1,1,0,0,0-.21.26,5.26,5.26,0,0,0-.24.48Z" transform="translate(-10.78 -4.22)"/><path class="cls-4" d="M119.37,15.67a3.58,3.58,0,0,1-.58.51,1.94,1.94,0,0,1-.57.3,2.17,2.17,0,0,1-.69.1A1.89,1.89,0,0,1,116,16a2.7,2.7,0,0,1-.51-1.78,3.06,3.06,0,0,1,.26-1.29,2,2,0,0,1,.75-.86,2.05,2.05,0,0,1,1.11-.3,1.94,1.94,0,0,1,.84.16,1.37,1.37,0,0,1,.55.42,2.11,2.11,0,0,1,.33.69,4.87,4.87,0,0,1,.12,1.07h-3.07v.09a3,3,0,0,0,.13,1,1.13,1.13,0,0,0,1.19.84,1.66,1.66,0,0,0,.72-.15,2,2,0,0,0,.64-.49Zm-.82-2a3.58,3.58,0,0,0-.14-.86,1,1,0,0,0-.3-.51.8.8,0,0,0-.54-.18,1,1,0,0,0-.8.4,2.2,2.2,0,0,0-.36,1.15Z" transform="translate(-10.78 -4.22)"/><path class="cls-4" d="M121.66,12.64l.07,0a4.23,4.23,0,0,1,.5-.52,2,2,0,0,1,.49-.29,1.9,1.9,0,0,1,.61-.1,3.89,3.89,0,0,1,.51,0V12.9h-.55a1.19,1.19,0,0,0-.25-.38.52.52,0,0,0-.36-.12.64.64,0,0,0-.35.1,1.43,1.43,0,0,0-.56.67,1.2,1.2,0,0,0-.06.4v1.71a2.61,2.61,0,0,0,.05.61.44.44,0,0,0,.18.25,1.21,1.21,0,0,0,.38.12v.24h-2v-.24a1.58,1.58,0,0,0,.26-.1.41.41,0,0,0,.14-.12.55.55,0,0,0,.09-.24,3.07,3.07,0,0,0,0-.5V13.17c0-.21,0-.38,0-.51a.83.83,0,0,0-.07-.3.37.37,0,0,0-.18-.17,1.45,1.45,0,0,0-.33-.1v-.25l1.14-.05h.3Z" transform="translate(-10.78 -4.22)"/><path class="cls-4" d="M127.75,12.9h-.47a1.42,1.42,0,0,0-.25-.46.79.79,0,0,0-.33-.23,1.27,1.27,0,0,0-.46-.07,1,1,0,0,0-.62.18.59.59,0,0,0-.23.5.7.7,0,0,0,.09.37,1,1,0,0,0,.29.28,5.82,5.82,0,0,0,.69.33,5.3,5.3,0,0,1,.77.4,1.4,1.4,0,0,1,.42.42,1.05,1.05,0,0,1,.15.57,1.42,1.42,0,0,1-.13.65,1.18,1.18,0,0,1-.37.43,1.63,1.63,0,0,1-.57.24,3.26,3.26,0,0,1-.72.07,5.06,5.06,0,0,1-.79-.06,6.41,6.41,0,0,1-.76-.16v-1h.48a1.24,1.24,0,0,0,.39.65,1.12,1.12,0,0,0,.72.2,2,2,0,0,0,.34,0,1.34,1.34,0,0,0,.3-.12.61.61,0,0,0,.21-.24.77.77,0,0,0,.08-.36.73.73,0,0,0-.1-.41.82.82,0,0,0-.3-.28,4.86,4.86,0,0,0-.72-.35,6,6,0,0,1-.72-.36,1.4,1.4,0,0,1-.42-.42,1.05,1.05,0,0,1-.15-.57,1.17,1.17,0,0,1,.21-.69,1.35,1.35,0,0,1,.63-.45,2.61,2.61,0,0,1,1-.16q.33,0,.63,0c.2,0,.45.07.75.13Z" transform="translate(-10.78 -4.22)"/><path class="cls-4" d="M183.22,9v1.48h-.48c-.07-.22-.14-.4-.2-.54a1.38,1.38,0,0,0-.21-.31.68.68,0,0,0-.26-.15,1.37,1.37,0,0,0-.39-.05h-1.43V12.1h1a.66.66,0,0,0,.34-.07.54.54,0,0,0,.2-.24,2.72,2.72,0,0,0,.15-.51h.46v2.06H182a2.81,2.81,0,0,0-.15-.5.61.61,0,0,0-.2-.24.64.64,0,0,0-.34-.07h-1v1.91a2.64,2.64,0,0,0,0,.47.66.66,0,0,0,.11.28.49.49,0,0,0,.21.16l.33.09v.24h-2.17v-.24a1.08,1.08,0,0,0,.41-.17.57.57,0,0,0,.13-.27,3.57,3.57,0,0,0,0-.54V10.24c0-.23,0-.39,0-.5a.76.76,0,0,0-.08-.23.4.4,0,0,0-.15-.14,1.69,1.69,0,0,0-.32-.12V9Z" transform="translate(-10.78 -4.22)"/><path class="cls-4" d="M183.76,11h1.39V13.5a6.46,6.46,0,0,0,0,.87,1.35,1.35,0,0,0,.13.45.75.75,0,0,0,.25.25,1,1,0,0,0,.8,0,1.52,1.52,0,0,0,.38-.26,1.19,1.19,0,0,0,.3-.36.93.93,0,0,0,.09-.42V12.23c0-.19,0-.33,0-.42a1,1,0,0,0,0-.23.47.47,0,0,0-.08-.14.49.49,0,0,0-.13-.1,1.31,1.31,0,0,0-.28-.09V11H188v3.34c0,.25,0,.43,0,.54a.77.77,0,0,0,.06.26.33.33,0,0,0,.15.16,1.43,1.43,0,0,0,.37.12v.25l-1.12.05h-.3l0-.8-.07,0a3.21,3.21,0,0,1-.77.64,1.52,1.52,0,0,1-.74.21,1.4,1.4,0,0,1-.74-.18,1.07,1.07,0,0,1-.43-.52,2.85,2.85,0,0,1-.14-1V12.23a3.58,3.58,0,0,0,0-.57.46.46,0,0,0-.12-.24.9.9,0,0,0-.39-.17Z" transform="translate(-10.78 -4.22)"/><path class="cls-4" d="M190.7,14.46a2.59,2.59,0,0,0,0,.58.38.38,0,0,0,.15.25.88.88,0,0,0,.36.15v.24h-1.94v-.24a1.34,1.34,0,0,0,.34-.13.38.38,0,0,0,.13-.16.83.83,0,0,0,.06-.26c0-.11,0-.26,0-.43V10.37c0-.31,0-.53,0-.65a1.39,1.39,0,0,0,0-.32.53.53,0,0,0-.09-.2.31.31,0,0,0-.15-.12,1.2,1.2,0,0,0-.34-.08V8.74l1.18-.05h.29Z" transform="translate(-10.78 -4.22)"/><path class="cls-4" d="M193.41,14.46a3.4,3.4,0,0,0,0,.58.48.48,0,0,0,.15.25,1,1,0,0,0,.36.15v.24H192v-.24a1.2,1.2,0,0,0,.34-.13.42.42,0,0,0,.14-.16.83.83,0,0,0,.06-.26c0-.11,0-.26,0-.43V9.72a2.31,2.31,0,0,0,0-.32.53.53,0,0,0-.09-.2.44.44,0,0,0-.15-.12,1.29,1.29,0,0,0-.35-.08V8.74l1.18-.05h.29Z" transform="translate(-10.78 -4.22)"/><path class="cls-4" d="M196.69,16.08a6.63,6.63,0,0,1-.52,1,2,2,0,0,1-.56.57,1.35,1.35,0,0,1-.73.19,3.38,3.38,0,0,1-.6-.06v-1h.43a.66.66,0,0,0,.15.28.37.37,0,0,0,.25.07.53.53,0,0,0,.26-.05.8.8,0,0,0,.24-.19,4,4,0,0,0,.3-.42c.11-.19.23-.43.37-.72l-1.36-3.68c-.09-.24-.16-.4-.21-.5a1,1,0,0,0-.18-.21.67.67,0,0,0-.28-.12V11h2v.24a1.23,1.23,0,0,0-.33.11.27.27,0,0,0-.13.13.41.41,0,0,0-.05.21,1.39,1.39,0,0,0,0,.27l.1.33.87,2.45,1-2.35a2.28,2.28,0,0,0,.13-.36,1.11,1.11,0,0,0,0-.3.41.41,0,0,0-.12-.32.88.88,0,0,0-.4-.17V11h1.83v.24a.72.72,0,0,0-.29.12.92.92,0,0,0-.21.25,4.52,4.52,0,0,0-.24.49Z" transform="translate(-10.78 -4.22)"/><path class="cls-4" d="M205.5,11.12v1h-.62a1.68,1.68,0,0,0-.2-.5.69.69,0,0,0-.29-.25.92.92,0,0,0-.4-.08.94.94,0,0,0-.6.22,1.43,1.43,0,0,0-.42.67,3.52,3.52,0,0,0-.15,1.1,4.42,4.42,0,0,0,.06.76,1.64,1.64,0,0,0,.2.59,1,1,0,0,0,.37.38,1.16,1.16,0,0,0,.58.14,1.61,1.61,0,0,0,.63-.13,2,2,0,0,0,.6-.47l.28.32a2.88,2.88,0,0,1-.44.43,1.87,1.87,0,0,1-.41.25,2.22,2.22,0,0,1-.89.19,1.73,1.73,0,0,1-1.41-.61,2.83,2.83,0,0,1-.49-1.77,3,3,0,0,1,.28-1.29,2.06,2.06,0,0,1,.76-.86,2.16,2.16,0,0,1,1.14-.3,4.24,4.24,0,0,1,.74.05A5.12,5.12,0,0,1,205.5,11.12Z" transform="translate(-10.78 -4.22)"/><path class="cls-4" d="M208.4,15.76a2,2,0,0,1-1.55-.6,2.57,2.57,0,0,1-.54-1.77,3.08,3.08,0,0,1,.28-1.36,1.94,1.94,0,0,1,.77-.83,2.29,2.29,0,0,1,1.12-.27,2,2,0,0,1,1.58.61,2.52,2.52,0,0,1,.54,1.74,3.13,3.13,0,0,1-.27,1.37,1.86,1.86,0,0,1-.76.83A2.3,2.3,0,0,1,208.4,15.76Zm-1.16-2.47a3,3,0,0,0,.32,1.54,1,1,0,0,0,.91.54.93.93,0,0,0,.56-.16,1.08,1.08,0,0,0,.37-.42,2,2,0,0,0,.21-.63,4.35,4.35,0,0,0,.06-.74,3.72,3.72,0,0,0-.16-1.19,1.41,1.41,0,0,0-.43-.69,1,1,0,0,0-.62-.23,1,1,0,0,0-.91.52A2.81,2.81,0,0,0,207.24,13.29Z" transform="translate(-10.78 -4.22)"/><path class="cls-4" d="M216.34,15.68h-1.93v-.24l.28-.1a.53.53,0,0,0,.14-.12,1.37,1.37,0,0,0,.09-.25,2.85,2.85,0,0,0,0-.49V13.2c0-.23,0-.44,0-.62a3.5,3.5,0,0,0-.07-.46,1.09,1.09,0,0,0-.11-.28,1.29,1.29,0,0,0-.16-.17l-.2-.11a.93.93,0,0,0-.31,0,.86.86,0,0,0-.36.08,1.29,1.29,0,0,0-.38.26,1.19,1.19,0,0,0-.3.36.93.93,0,0,0-.09.42v1.82a2.59,2.59,0,0,0,0,.58.38.38,0,0,0,.15.25.88.88,0,0,0,.36.15v.24h-1.92v-.24a1.44,1.44,0,0,0,.27-.1.41.41,0,0,0,.14-.12.67.67,0,0,0,.09-.24,3.13,3.13,0,0,0,0-.51V12.34c0-.2,0-.37,0-.5a.78.78,0,0,0-.07-.3.33.33,0,0,0-.18-.17,1.41,1.41,0,0,0-.34-.1V11l1.15,0H213l0,.79.07,0a4.48,4.48,0,0,1,.58-.52A2.46,2.46,0,0,1,214,11a1.28,1.28,0,0,1,.48-.09A1.63,1.63,0,0,1,215,11a1.43,1.43,0,0,1,.37.19,1,1,0,0,1,.26.32,1.57,1.57,0,0,1,.16.45,4.08,4.08,0,0,1,0,.67v1.84a3.12,3.12,0,0,0,0,.49.58.58,0,0,0,.06.23.41.41,0,0,0,.15.14,1.07,1.07,0,0,0,.32.12Z" transform="translate(-10.78 -4.22)"/><path class="cls-4" d="M221.92,15.68H220v-.24l.27-.1a.53.53,0,0,0,.14-.12.88.88,0,0,0,.09-.25,2.85,2.85,0,0,0,0-.49V13.2c0-.23,0-.44,0-.62a2.36,2.36,0,0,0-.07-.46,1.09,1.09,0,0,0-.11-.28.85.85,0,0,0-.16-.17l-.2-.11a.9.9,0,0,0-.31,0,.86.86,0,0,0-.36.08,1.29,1.29,0,0,0-.38.26,1.19,1.19,0,0,0-.3.36.93.93,0,0,0-.09.42v1.82a2.59,2.59,0,0,0,0,.58.43.43,0,0,0,.15.25.88.88,0,0,0,.36.15v.24h-1.92v-.24a1.44,1.44,0,0,0,.27-.1.41.41,0,0,0,.14-.12.67.67,0,0,0,.09-.24,3.13,3.13,0,0,0,0-.51V12.34c0-.2,0-.37,0-.5a.78.78,0,0,0-.07-.3.33.33,0,0,0-.18-.17,1.45,1.45,0,0,0-.33-.1V11l1.14,0h.3l-.06.79.07,0a5.26,5.26,0,0,1,.58-.52,2.46,2.46,0,0,1,.45-.24,1.28,1.28,0,0,1,.48-.09,1.75,1.75,0,0,1,.48.06,1.37,1.37,0,0,1,.36.19,1,1,0,0,1,.26.32,1.57,1.57,0,0,1,.16.45,4.08,4.08,0,0,1,.05.67v1.84a3.12,3.12,0,0,0,0,.49.45.45,0,0,0,.07.23.38.38,0,0,0,.14.14,1.2,1.2,0,0,0,.32.12Z" transform="translate(-10.78 -4.22)"/><path class="cls-4" d="M226.65,14.85a3.58,3.58,0,0,1-.58.51,1.92,1.92,0,0,1-.57.29,2.17,2.17,0,0,1-.69.11,1.86,1.86,0,0,1-1.52-.61,2.67,2.67,0,0,1-.51-1.77,3.06,3.06,0,0,1,.26-1.29,2,2,0,0,1,.74-.86,2.11,2.11,0,0,1,1.12-.3,1.94,1.94,0,0,1,.84.16,1.37,1.37,0,0,1,.55.42,1.84,1.84,0,0,1,.32.69,4.27,4.27,0,0,1,.13,1.07h-3.07v.09a3,3,0,0,0,.13,1,1.13,1.13,0,0,0,.42.61,1.26,1.26,0,0,0,.77.23,1.66,1.66,0,0,0,.72-.15,2.11,2.11,0,0,0,.64-.49Zm-.82-2a3.58,3.58,0,0,0-.14-.86,1.06,1.06,0,0,0-.3-.52.8.8,0,0,0-.54-.18.94.94,0,0,0-.8.41,2.2,2.2,0,0,0-.36,1.15Z" transform="translate(-10.78 -4.22)"/><path class="cls-4" d="M231.26,11.12v1h-.62a1.67,1.67,0,0,0-.21-.5.66.66,0,0,0-.28-.25,1,1,0,0,0-.4-.08.92.92,0,0,0-.6.22,1.43,1.43,0,0,0-.42.67,3.5,3.5,0,0,0-.16,1.1,4.42,4.42,0,0,0,.06.76,1.86,1.86,0,0,0,.2.59,1.06,1.06,0,0,0,.38.38,1.16,1.16,0,0,0,.58.14,1.69,1.69,0,0,0,.63-.13,2.15,2.15,0,0,0,.6-.47l.28.32a3.43,3.43,0,0,1-.44.43,2.14,2.14,0,0,1-.41.25,2.39,2.39,0,0,1-.43.14,2.16,2.16,0,0,1-.46,0,1.72,1.72,0,0,1-1.41-.61,2.76,2.76,0,0,1-.49-1.77,3,3,0,0,1,.27-1.29,2.08,2.08,0,0,1,.77-.86,2.16,2.16,0,0,1,1.14-.3,4.31,4.31,0,0,1,.74.05A5.87,5.87,0,0,1,231.26,11.12Z" transform="translate(-10.78 -4.22)"/><path class="cls-4" d="M231.74,11.26a1.18,1.18,0,0,0,.39-.14.82.82,0,0,0,.24-.25,1.46,1.46,0,0,0,.14-.39c0-.15.06-.38.1-.67h.69V11h1.58v.5H233.3v2.17a5,5,0,0,0,0,.75,1.07,1.07,0,0,0,.15.44.65.65,0,0,0,.24.23.87.87,0,0,0,.35.07,1,1,0,0,0,.37-.08,1.42,1.42,0,0,0,.34-.24l.22.27a3.09,3.09,0,0,1-.66.49,1.46,1.46,0,0,1-.64.15,1.14,1.14,0,0,1-.94-.38,1.75,1.75,0,0,1-.31-1.16V11.51h-.72Z" transform="translate(-10.78 -4.22)"/><path class="cls-4" d="M239.23,14.85a3.58,3.58,0,0,1-.58.51,1.92,1.92,0,0,1-.57.29,2.17,2.17,0,0,1-.69.11,1.88,1.88,0,0,1-1.52-.61,2.67,2.67,0,0,1-.51-1.77,3.06,3.06,0,0,1,.26-1.29,2,2,0,0,1,1.86-1.16,1.94,1.94,0,0,1,.84.16,1.41,1.41,0,0,1,.56.42,2.21,2.21,0,0,1,.32.69,4.79,4.79,0,0,1,.13,1.07h-3.08v.09a3,3,0,0,0,.13,1,1.24,1.24,0,0,0,.42.61,1.26,1.26,0,0,0,.77.23,1.66,1.66,0,0,0,.72-.15,2,2,0,0,0,.64-.49Zm-.82-2a3.63,3.63,0,0,0-.13-.86,1.07,1.07,0,0,0-.31-.52.8.8,0,0,0-.54-.18,1,1,0,0,0-.8.41,2.2,2.2,0,0,0-.36,1.15Z" transform="translate(-10.78 -4.22)"/><path class="cls-4" d="M243.5,10.37c0-.31,0-.53,0-.65a1,1,0,0,0,0-.32.76.76,0,0,0-.08-.2.44.44,0,0,0-.15-.12,1.29,1.29,0,0,0-.35-.08V8.74l1.18-.05h.29v5.66c0,.25,0,.43,0,.54a.77.77,0,0,0,.06.26.33.33,0,0,0,.15.16,1.59,1.59,0,0,0,.37.12v.25l-1.15.05h-.29l.05-.8-.07,0a3.67,3.67,0,0,1-.53.49,1.93,1.93,0,0,1-.49.26,1.55,1.55,0,0,1-1.78-.51,3,3,0,0,1-.44-1.76,3,3,0,0,1,.29-1.36,1.92,1.92,0,0,1,.76-.83,2.16,2.16,0,0,1,1.08-.27A3.51,3.51,0,0,1,243,11a2.25,2.25,0,0,1,.54.17Zm0,2.41a5,5,0,0,0,0-.61,1.21,1.21,0,0,0-.12-.38.79.79,0,0,0-.21-.27,1.05,1.05,0,0,0-.3-.15,1.5,1.5,0,0,0-.4,0,1.07,1.07,0,0,0-.95.5,2.6,2.6,0,0,0-.33,1.44,3,3,0,0,0,.27,1.42.87.87,0,0,0,.82.49,1.69,1.69,0,0,0,.35,0,1.39,1.39,0,0,0,.28-.12,2.42,2.42,0,0,0,.28-.22,2,2,0,0,0,.21-.26,1.69,1.69,0,0,0,.1-.27,2.06,2.06,0,0,0,0-.39Z" transform="translate(-10.78 -4.22)"/><path class="cls-4" d="M249.26,14.46a2.59,2.59,0,0,0,0,.58.38.38,0,0,0,.15.25.89.89,0,0,0,.35.15v.24h-1.93v-.24a1.34,1.34,0,0,0,.34-.13.48.48,0,0,0,.13-.16.83.83,0,0,0,.06-.26c0-.11,0-.26,0-.43V10.37c0-.31,0-.53,0-.65a1.39,1.39,0,0,0,0-.32.53.53,0,0,0-.09-.2.31.31,0,0,0-.15-.12,1.2,1.2,0,0,0-.34-.08V8.74L249,8.69h.29Z" transform="translate(-10.78 -4.22)"/><path class="cls-4" d="M253.49,15l-.07,0a2.94,2.94,0,0,1-.8.62,1.79,1.79,0,0,1-.79.18,1.4,1.4,0,0,1-.66-.15,1,1,0,0,1-.43-.4,1.24,1.24,0,0,1,.55-1.71,5.28,5.28,0,0,1,2.12-.45v-.31a2.54,2.54,0,0,0-.1-.81.76.76,0,0,0-.31-.42.93.93,0,0,0-.56-.14.91.91,0,0,0-.61.2,1.17,1.17,0,0,0-.35.6h-.64v-.64a5.85,5.85,0,0,1,.78-.35,5,5,0,0,1,.63-.19,3.28,3.28,0,0,1,.63-.06,1.75,1.75,0,0,1,.78.15,1.06,1.06,0,0,1,.44.47,2.59,2.59,0,0,1,.14,1v1.7c0,.24,0,.41,0,.51a1.27,1.27,0,0,0,0,.28.52.52,0,0,0,.07.2.44.44,0,0,0,.14.13l.31.11v.24h-1.33Zm-.08-1.53a3.5,3.5,0,0,0-1.49.27.82.82,0,0,0-.49.76.77.77,0,0,0,.11.44.65.65,0,0,0,.29.23,1.2,1.2,0,0,0,.4.06,1.22,1.22,0,0,0,.6-.16,1.16,1.16,0,0,0,.43-.42.93.93,0,0,0,.15-.49Z" transform="translate(-10.78 -4.22)"/><path class="cls-4" d="M257.42,16.08a6.63,6.63,0,0,1-.52,1,2,2,0,0,1-.56.57,1.29,1.29,0,0,1-.72.19,3.49,3.49,0,0,1-.61-.06v-1h.43a.66.66,0,0,0,.15.28.38.38,0,0,0,.26.07.58.58,0,0,0,.26-.05,1.16,1.16,0,0,0,.24-.19,4.12,4.12,0,0,0,.29-.42c.11-.19.24-.43.38-.72l-1.37-3.68c-.09-.24-.16-.4-.21-.5a.76.76,0,0,0-.18-.21.67.67,0,0,0-.28-.12V11h2v.24a1.13,1.13,0,0,0-.32.11.26.26,0,0,0-.14.13.41.41,0,0,0,0,.21,1.39,1.39,0,0,0,0,.27,2.3,2.3,0,0,0,.1.33l.87,2.45,1-2.35a2.28,2.28,0,0,0,.13-.36,1.11,1.11,0,0,0,.05-.3.41.41,0,0,0-.12-.32.84.84,0,0,0-.39-.17V11h1.82v.24a.79.79,0,0,0-.29.12.92.92,0,0,0-.21.25c-.06.12-.15.28-.24.49Z" transform="translate(-10.78 -4.22)"/><path class="cls-4" d="M264.1,14.85a4,4,0,0,1-.57.51,2.1,2.1,0,0,1-.58.29,2.06,2.06,0,0,1-.68.11,1.86,1.86,0,0,1-1.52-.61,2.67,2.67,0,0,1-.52-1.77,2.92,2.92,0,0,1,.27-1.29,2,2,0,0,1,.74-.86,2.05,2.05,0,0,1,1.11-.3,1.94,1.94,0,0,1,.84.16,1.34,1.34,0,0,1,.56.42,2,2,0,0,1,.32.69,4.27,4.27,0,0,1,.13,1.07h-3.08v.09a3.35,3.35,0,0,0,.13,1,1.2,1.2,0,0,0,.43.61,1.22,1.22,0,0,0,.77.23,1.72,1.72,0,0,0,.72-.15,2.08,2.08,0,0,0,.63-.49Zm-.82-2a3.63,3.63,0,0,0-.13-.86,1.07,1.07,0,0,0-.31-.52.77.77,0,0,0-.54-.18,1,1,0,0,0-.8.41,2.12,2.12,0,0,0-.35,1.15Z" transform="translate(-10.78 -4.22)"/><path class="cls-4" d="M266.4,11.82l.07,0a3.59,3.59,0,0,1,.49-.52,2.1,2.1,0,0,1,.5-.29,1.64,1.64,0,0,1,.6-.1,3.89,3.89,0,0,1,.51,0v1.12H268a1.19,1.19,0,0,0-.25-.38.49.49,0,0,0-.36-.12.69.69,0,0,0-.35.1,1.49,1.49,0,0,0-.33.3,1.2,1.2,0,0,0-.22.36,1.27,1.27,0,0,0-.06.41v1.71a2.15,2.15,0,0,0,.05.61.48.48,0,0,0,.18.25,1.14,1.14,0,0,0,.37.12v.24h-2v-.24a1.44,1.44,0,0,0,.27-.1.53.53,0,0,0,.14-.12.67.67,0,0,0,.09-.24,3.13,3.13,0,0,0,0-.51V12.34c0-.2,0-.37,0-.5a.78.78,0,0,0-.07-.3.33.33,0,0,0-.18-.17,1.41,1.41,0,0,0-.34-.1V11l1.14,0h.3Z" transform="translate(-10.78 -4.22)"/><path class="cls-4" d="M272.49,12.08H272a1.43,1.43,0,0,0-.26-.46.85.85,0,0,0-.33-.24,1.42,1.42,0,0,0-.45-.07,1,1,0,0,0-.63.19.61.61,0,0,0-.23.5.62.62,0,0,0,.1.37.81.81,0,0,0,.28.27,4.36,4.36,0,0,0,.69.34,4.12,4.12,0,0,1,.77.4,1.57,1.57,0,0,1,.43.42,1,1,0,0,1,.15.57,1.45,1.45,0,0,1-.13.65,1.27,1.27,0,0,1-.37.43,1.46,1.46,0,0,1-.57.23,3.24,3.24,0,0,1-.72.08,5.19,5.19,0,0,1-.8-.06c-.26,0-.51-.1-.75-.16v-1h.48a1.29,1.29,0,0,0,.39.65,1.15,1.15,0,0,0,.71.2,2.07,2.07,0,0,0,.35,0,1,1,0,0,0,.3-.13.67.67,0,0,0,.21-.23,1,1,0,0,0,0-.77,1.09,1.09,0,0,0-.31-.29,5.09,5.09,0,0,0-.72-.34,5.05,5.05,0,0,1-.71-.37,1.27,1.27,0,0,1-.42-.41,1,1,0,0,1-.16-.57,1.1,1.1,0,0,1,.22-.69,1.25,1.25,0,0,1,.63-.45,2.54,2.54,0,0,1,1-.16c.21,0,.42,0,.62,0a6.37,6.37,0,0,1,.76.13Z" transform="translate(-10.78 -4.22)"/><path class="cls-4" d="M288.87,10a2.64,2.64,0,0,0,0,.45,1.11,1.11,0,0,0,.1.28.54.54,0,0,0,.18.15,1.31,1.31,0,0,0,.35.11v.24h-2.14V11a1,1,0,0,0,.4-.17.47.47,0,0,0,.14-.27,3.57,3.57,0,0,0,0-.54V5.77a2.77,2.77,0,0,0,0-.49.45.45,0,0,0-.08-.24.32.32,0,0,0-.14-.14,2.24,2.24,0,0,0-.32-.11V4.55h2.42a2.75,2.75,0,0,1,1.7.43,1.6,1.6,0,0,1,.56,1.33,2.25,2.25,0,0,1-.18.92,1.64,1.64,0,0,1-.49.66,2,2,0,0,1-.76.37,3.59,3.59,0,0,1-.93.11c-.36,0-.64,0-.84,0Zm0-2h.57a2.6,2.6,0,0,0,.91-.14,1.12,1.12,0,0,0,.55-.48,1.78,1.78,0,0,0,.19-.89,2,2,0,0,0-.11-.7,1.16,1.16,0,0,0-.31-.45,1,1,0,0,0-.47-.24,2.35,2.35,0,0,0-.6-.07,7.21,7.21,0,0,0-.73,0Z" transform="translate(-10.78 -4.22)"/><path class="cls-4" d="M294.27,7.35l.07,0a3.59,3.59,0,0,1,.49-.52,2.1,2.1,0,0,1,.5-.29,1.64,1.64,0,0,1,.6-.1,4.17,4.17,0,0,1,.52,0V7.61h-.56a1,1,0,0,0-.25-.38.49.49,0,0,0-.36-.12.69.69,0,0,0-.35.1,1.49,1.49,0,0,0-.33.3,1.13,1.13,0,0,0-.22.37,1.2,1.2,0,0,0-.06.4V10a2.15,2.15,0,0,0,.05.61.44.44,0,0,0,.18.25,1.14,1.14,0,0,0,.37.12v.24h-2V11a1.44,1.44,0,0,0,.27-.1.53.53,0,0,0,.14-.12.6.6,0,0,0,.09-.24,3.07,3.07,0,0,0,0-.5V7.88c0-.21,0-.38,0-.51a.78.78,0,0,0-.07-.3.33.33,0,0,0-.18-.17,1.41,1.41,0,0,0-.34-.1V6.55l1.14,0h.3Z" transform="translate(-10.78 -4.22)"/><path class="cls-4" d="M299.06,11.29a2,2,0,0,1-1.55-.6A2.62,2.62,0,0,1,297,8.92a2.94,2.94,0,0,1,.28-1.36,1.88,1.88,0,0,1,.77-.83,2.23,2.23,0,0,1,1.11-.27,2,2,0,0,1,1.58.61,2.54,2.54,0,0,1,.54,1.74,3.13,3.13,0,0,1-.27,1.37,1.81,1.81,0,0,1-.76.83A2.3,2.3,0,0,1,299.06,11.29ZM297.9,8.82a3.07,3.07,0,0,0,.32,1.54,1,1,0,0,0,.92.54.92.92,0,0,0,.55-.16,1.11,1.11,0,0,0,.38-.42,2.22,2.22,0,0,0,.2-.63,3.48,3.48,0,0,0,.07-.73,4.05,4.05,0,0,0-.16-1.2,1.54,1.54,0,0,0-.43-.69,1,1,0,0,0-.63-.22,1,1,0,0,0-.9.51A2.8,2.8,0,0,0,297.9,8.82Z" transform="translate(-10.78 -4.22)"/><path class="cls-4" d="M303.48,7.31h0a3.38,3.38,0,0,1,.57-.51,1.88,1.88,0,0,1,.46-.25,1.51,1.51,0,0,1,.53-.08,1.49,1.49,0,0,1,.9.26,1.7,1.7,0,0,1,.58.8,3.78,3.78,0,0,1,.2,1.3,3.4,3.4,0,0,1-.24,1.35,1.78,1.78,0,0,1-.72.83,2.08,2.08,0,0,1-1.11.28,3,3,0,0,1-.68-.07,2.67,2.67,0,0,1-.67-.23l-.35.3-.33-.08V5.9c0-.31,0-.53,0-.65a2.53,2.53,0,0,0,0-.32.53.53,0,0,0-.09-.2.31.31,0,0,0-.15-.12L302,4.53V4.27l1.18,0h.29Zm0,2.14a4.75,4.75,0,0,0,0,.6,1,1,0,0,0,.12.37.83.83,0,0,0,.23.27.91.91,0,0,0,.34.17,1.91,1.91,0,0,0,.43,0,1,1,0,0,0,.89-.48,2.7,2.7,0,0,0,.3-1.43,2.9,2.9,0,0,0-.28-1.45.88.88,0,0,0-.83-.49,1.13,1.13,0,0,0-.47.09,1.44,1.44,0,0,0-.67.62.87.87,0,0,0-.09.4Z" transform="translate(-10.78 -4.22)"/><path class="cls-4" d="M310.54,10.51l-.07,0a2.94,2.94,0,0,1-.8.62,1.79,1.79,0,0,1-.79.18,1.53,1.53,0,0,1-.66-.14,1.06,1.06,0,0,1-.43-.41,1.23,1.23,0,0,1,.55-1.7,5.1,5.1,0,0,1,2.12-.46V8.27a2.44,2.44,0,0,0-.1-.8.75.75,0,0,0-.31-.43.93.93,0,0,0-.56-.14.91.91,0,0,0-.61.2,1.17,1.17,0,0,0-.35.6h-.64V7.07a5,5,0,0,1,.78-.36,3.73,3.73,0,0,1,.63-.18,2.7,2.7,0,0,1,.63-.07,1.75,1.75,0,0,1,.78.15,1,1,0,0,1,.44.48,2.34,2.34,0,0,1,.14.95v1.7c0,.24,0,.41,0,.51a1.27,1.27,0,0,0,0,.28.77.77,0,0,0,.07.2.39.39,0,0,0,.15.13,1.16,1.16,0,0,0,.31.11v.24h-1.34ZM310.46,9a3.5,3.5,0,0,0-1.49.27.82.82,0,0,0-.49.76.77.77,0,0,0,.11.44.59.59,0,0,0,.29.23,1.2,1.2,0,0,0,.4.06,1.19,1.19,0,0,0,1-.57,1,1,0,0,0,.15-.5Z" transform="translate(-10.78 -4.22)"/><path class="cls-4" d="M313.83,7.31h0a4.4,4.4,0,0,1,.57-.51,1.94,1.94,0,0,1,.47-.25,1.51,1.51,0,0,1,.53-.08,1.49,1.49,0,0,1,.9.26,1.69,1.69,0,0,1,.57.8,3.54,3.54,0,0,1,.21,1.3,3.39,3.39,0,0,1-.25,1.35,1.81,1.81,0,0,1-.71.83,2.12,2.12,0,0,1-1.12.28,3,3,0,0,1-.68-.07,3,3,0,0,1-.67-.23l-.34.3-.34-.08v-6a2.53,2.53,0,0,0,0-.32.53.53,0,0,0-.09-.2.44.44,0,0,0-.15-.12l-.35-.08V4.27l1.19,0h.28Zm0,2.14a4.47,4.47,0,0,0,0,.6,1.16,1.16,0,0,0,.11.37.87.87,0,0,0,.24.27.84.84,0,0,0,.34.17,1.91,1.91,0,0,0,.43,0,1,1,0,0,0,.88-.48A2.59,2.59,0,0,0,316.18,9a2.9,2.9,0,0,0-.28-1.45.88.88,0,0,0-.83-.49,1.06,1.06,0,0,0-.47.09,1.26,1.26,0,0,0-.39.26,1.31,1.31,0,0,0-.29.36.87.87,0,0,0-.09.4Z" transform="translate(-10.78 -4.22)"/><path class="cls-4" d="M318.08,11l.27-.1a.37.37,0,0,0,.13-.12.6.6,0,0,0,.09-.24,3.07,3.07,0,0,0,0-.5V7.88c0-.21,0-.38,0-.51a.79.79,0,0,0-.06-.3.33.33,0,0,0-.18-.17,1.56,1.56,0,0,0-.34-.1V6.54l1.14,0h.29V10a3.31,3.31,0,0,0,0,.58.44.44,0,0,0,.15.25A.88.88,0,0,0,320,11v.24h-1.91Zm1.39-6.34v1h-.9v-1Z" transform="translate(-10.78 -4.22)"/><path class="cls-4" d="M322.16,10a2.53,2.53,0,0,0,0,.58.36.36,0,0,0,.15.25.88.88,0,0,0,.36.15v.24h-1.94V11a1,1,0,0,0,.34-.13.38.38,0,0,0,.13-.16.83.83,0,0,0,.06-.26c0-.11,0-.25,0-.43V5.9c0-.31,0-.53,0-.65a1.47,1.47,0,0,0,0-.32.53.53,0,0,0-.09-.2.31.31,0,0,0-.15-.12l-.34-.08V4.27l1.18,0h.29Z" transform="translate(-10.78 -4.22)"/><path class="cls-4" d="M323.57,11a1.44,1.44,0,0,0,.27-.1.53.53,0,0,0,.14-.12.83.83,0,0,0,.08-.24,2.12,2.12,0,0,0,0-.5V7.88c0-.21,0-.38,0-.51a.78.78,0,0,0-.07-.3.33.33,0,0,0-.18-.17,1.41,1.41,0,0,0-.34-.1V6.54l1.14,0h.3V10a2.53,2.53,0,0,0,0,.58.36.36,0,0,0,.15.25.89.89,0,0,0,.35.15v.24h-1.91ZM325,4.63v1h-.9v-1Z" transform="translate(-10.78 -4.22)"/><path class="cls-4" d="M329.62,7.61h-.47a1.64,1.64,0,0,0-.25-.46.88.88,0,0,0-.34-.24,1.44,1.44,0,0,0-.45-.06,1,1,0,0,0-.62.18.59.59,0,0,0-.23.5.7.7,0,0,0,.09.37.85.85,0,0,0,.29.27,4.36,4.36,0,0,0,.69.34,5.3,5.3,0,0,1,.77.4,1.53,1.53,0,0,1,.42.42,1.05,1.05,0,0,1,.15.57,1.45,1.45,0,0,1-.13.65,1.18,1.18,0,0,1-.37.43,1.63,1.63,0,0,1-.57.24,4,4,0,0,1-.72.07,5.06,5.06,0,0,1-.79-.06c-.26,0-.51-.1-.76-.16v-1h.48a1.24,1.24,0,0,0,.39.65,1.12,1.12,0,0,0,.72.2,2,2,0,0,0,.34,0,1,1,0,0,0,.3-.13.52.52,0,0,0,.21-.23.77.77,0,0,0,.08-.36.73.73,0,0,0-.1-.41,1,1,0,0,0-.3-.28,4.61,4.61,0,0,0-.73-.35,6.56,6.56,0,0,1-.71-.36,1.4,1.4,0,0,1-.42-.42,1.05,1.05,0,0,1-.15-.57,1.15,1.15,0,0,1,.21-.69,1.35,1.35,0,0,1,.63-.45,2.54,2.54,0,0,1,1-.16,6,6,0,0,1,.62,0,5.76,5.76,0,0,1,.76.13Z" transform="translate(-10.78 -4.22)"/><path class="cls-4" d="M330.35,6.79a1,1,0,0,0,.4-.14A.61.61,0,0,0,331,6.4a1.18,1.18,0,0,0,.14-.39c0-.15.06-.38.1-.67h.69v1.2h1.58V7h-1.58V9.21a6.73,6.73,0,0,0,0,.75,1.07,1.07,0,0,0,.15.44.65.65,0,0,0,.24.23.74.74,0,0,0,.36.07.86.86,0,0,0,.36-.08,1.46,1.46,0,0,0,.34-.23l.22.26a2.67,2.67,0,0,1-.66.49,1.43,1.43,0,0,1-.64.15,1.18,1.18,0,0,1-.94-.37,1.86,1.86,0,0,1-.31-1.17V7h-.72Z" transform="translate(-10.78 -4.22)"/><path class="cls-4" d="M334,11a1.44,1.44,0,0,0,.27-.1.53.53,0,0,0,.14-.12.83.83,0,0,0,.08-.24,2.12,2.12,0,0,0,0-.5V7.88c0-.21,0-.38,0-.51a.78.78,0,0,0-.07-.3.33.33,0,0,0-.18-.17,1.41,1.41,0,0,0-.34-.1V6.54l1.14,0h.3V10a3.64,3.64,0,0,0,0,.58.44.44,0,0,0,.15.25,1,1,0,0,0,.36.15v.24H334Zm1.4-6.34v1h-.9v-1Z" transform="translate(-10.78 -4.22)"/><path class="cls-4" d="M340.44,6.66v1h-.62a1.48,1.48,0,0,0-.2-.5.68.68,0,0,0-.28-.26,1,1,0,0,0-.4-.07.92.92,0,0,0-.61.22,1.4,1.4,0,0,0-.42.66,3.52,3.52,0,0,0-.15,1.1,4.42,4.42,0,0,0,.06.76,1.64,1.64,0,0,0,.2.59,1,1,0,0,0,.37.38,1.16,1.16,0,0,0,.58.14,1.61,1.61,0,0,0,.63-.13,2,2,0,0,0,.61-.47l.27.32a2.88,2.88,0,0,1-.44.43,2.06,2.06,0,0,1-.4.25,2.68,2.68,0,0,1-.43.14,2.24,2.24,0,0,1-.46,0,1.71,1.71,0,0,1-1.42-.61,2.83,2.83,0,0,1-.48-1.77,3,3,0,0,1,.27-1.29,2,2,0,0,1,.77-.86,2.12,2.12,0,0,1,1.13-.3,5.5,5.5,0,0,1,.74,0A3.93,3.93,0,0,1,340.44,6.66Z" transform="translate(-10.78 -4.22)"/><path class="cls-4" d="M346.84,7.56l-1.28,3.68h-.68l-1.17-3.63a2.78,2.78,0,0,0-.19-.49.66.66,0,0,0-.16-.22.86.86,0,0,0-.27-.12V6.54H345v.24a.8.8,0,0,0-.38.16.34.34,0,0,0-.1.28,1.41,1.41,0,0,0,0,.28,3.4,3.4,0,0,0,.09.33l.77,2.49,1.25-3.78h.69l1.06,3.78.86-2.39a1.75,1.75,0,0,0,.11-.35,1.24,1.24,0,0,0,.05-.31.44.44,0,0,0-.11-.32.71.71,0,0,0-.37-.17V6.54h1.7v.24l-.21.07a.63.63,0,0,0-.13.11,2,2,0,0,0-.15.22,5,5,0,0,0-.2.46l-1.41,3.6h-.66Z" transform="translate(-10.78 -4.22)"/><path class="cls-4" d="M354.94,10.38a3.58,3.58,0,0,1-.58.51,1.92,1.92,0,0,1-.57.29,2.17,2.17,0,0,1-.69.11,1.89,1.89,0,0,1-1.52-.6,2.72,2.72,0,0,1-.51-1.78,3.06,3.06,0,0,1,.26-1.29,2,2,0,0,1,.75-.86,2.05,2.05,0,0,1,1.11-.3,1.94,1.94,0,0,1,.84.16,1.37,1.37,0,0,1,.55.42,2,2,0,0,1,.33.69A4.87,4.87,0,0,1,355,8.8H352v.09a3,3,0,0,0,.13,1,1.25,1.25,0,0,0,.42.62,1.32,1.32,0,0,0,.77.22,1.66,1.66,0,0,0,.72-.15,2,2,0,0,0,.64-.49Zm-.82-2a3.58,3.58,0,0,0-.14-.86,1.06,1.06,0,0,0-.3-.52.85.85,0,0,0-.54-.17.93.93,0,0,0-.8.4A2.2,2.2,0,0,0,352,8.4Z" transform="translate(-10.78 -4.22)"/><path class="cls-4" d="M355.91,11a1.44,1.44,0,0,0,.27-.1.41.41,0,0,0,.14-.12.6.6,0,0,0,.09-.24,3.07,3.07,0,0,0,0-.5V7.88c0-.21,0-.38,0-.51a.78.78,0,0,0-.07-.3.33.33,0,0,0-.18-.17,1.45,1.45,0,0,0-.33-.1V6.54l1.13,0h.3V10a2.53,2.53,0,0,0,0,.58.4.4,0,0,0,.15.25.88.88,0,0,0,.36.15v.24h-1.92Zm1.4-6.34v1h-.9v-1Z" transform="translate(-10.78 -4.22)"/><path class="cls-4" d="M363.07,7l-.9,0-.05.06a1,1,0,0,1,.24.41,1.69,1.69,0,0,1,.09.56A1.55,1.55,0,0,1,362,9.26a2,2,0,0,1-1.39.43,2.07,2.07,0,0,1-.7-.1.74.74,0,0,0-.37.56.41.41,0,0,0,.07.27.37.37,0,0,0,.23.13,2.12,2.12,0,0,0,.5,0h1.17a1.85,1.85,0,0,1,.84.16,1,1,0,0,1,.47.43,1.44,1.44,0,0,1,.14.64,1.35,1.35,0,0,1-.26.81,1.68,1.68,0,0,1-.77.56,2.94,2.94,0,0,1-1.16.2,8.12,8.12,0,0,1-.9-.05,2.63,2.63,0,0,1-.7-.2,1.28,1.28,0,0,1-.45-.37,1,1,0,0,1-.15-.57.86.86,0,0,1,.2-.56,2,2,0,0,1,.58-.44.82.82,0,0,1-.36-.27.69.69,0,0,1-.13-.43A1,1,0,0,1,359,10a2.65,2.65,0,0,1,.56-.53,1.3,1.3,0,0,1-.54-.55,1.77,1.77,0,0,1-.18-.8,1.64,1.64,0,0,1,.14-.73,1.43,1.43,0,0,1,.38-.52,1.82,1.82,0,0,1,.59-.3,2.37,2.37,0,0,1,.72-.1,3.27,3.27,0,0,1,.7.08h1.73Zm-3.27,4.25a1.35,1.35,0,0,0-.37.39.94.94,0,0,0-.12.47.69.69,0,0,0,.35.65,2.08,2.08,0,0,0,1.06.21,2.13,2.13,0,0,0,.76-.12,1,1,0,0,0,.48-.34.8.8,0,0,0,.16-.51,1.09,1.09,0,0,0,0-.26.56.56,0,0,0-.13-.24.59.59,0,0,0-.27-.16,1.47,1.47,0,0,0-.46-.06h-.73C360.24,11.32,360,11.31,359.8,11.29ZM359.68,8a1.59,1.59,0,0,0,.25.94.86.86,0,0,0,.72.33.87.87,0,0,0,.42-.09.81.81,0,0,0,.29-.26,1.23,1.23,0,0,0,.16-.39,1.64,1.64,0,0,0,.05-.45,1.87,1.87,0,0,0-.12-.72.84.84,0,0,0-.33-.42.87.87,0,0,0-.48-.14.84.84,0,0,0-.71.31A1.35,1.35,0,0,0,359.68,8Z" transform="translate(-10.78 -4.22)"/><path class="cls-4" d="M364.87,7.31h0a5.16,5.16,0,0,1,.61-.53,1.86,1.86,0,0,1,.43-.24,1.49,1.49,0,0,1,.47-.07,1.75,1.75,0,0,1,.48.06,1,1,0,0,1,.37.19,1.18,1.18,0,0,1,.26.32,2,2,0,0,1,.15.45,3.86,3.86,0,0,1,0,.66V10a3.64,3.64,0,0,0,0,.58.55.55,0,0,0,.13.24,1,1,0,0,0,.39.16v.24h-1.93V11l.28-.1a.53.53,0,0,0,.14-.12,1,1,0,0,0,.08-.24,2.85,2.85,0,0,0,0-.5V8.73a6,6,0,0,0-.07-1,.89.89,0,0,0-.26-.52.81.81,0,0,0-.54-.17.78.78,0,0,0-.35.07,1.71,1.71,0,0,0-.36.24,1.42,1.42,0,0,0-.31.36.83.83,0,0,0-.11.4V10a4.55,4.55,0,0,0,0,.47.52.52,0,0,0,.07.24.43.43,0,0,0,.14.16,1.17,1.17,0,0,0,.32.11v.24h-1.94V11a1.16,1.16,0,0,0,.31-.11.38.38,0,0,0,.14-.14.56.56,0,0,0,.08-.24,3.05,3.05,0,0,0,0-.49V5.25a2.53,2.53,0,0,0,0-.32.53.53,0,0,0-.09-.2.44.44,0,0,0-.15-.12l-.35-.08V4.27l1.18,0h.29Z" transform="translate(-10.78 -4.22)"/><path class="cls-4" d="M368.79,6.79a1,1,0,0,0,.39-.14.64.64,0,0,0,.24-.25,1.46,1.46,0,0,0,.14-.39c0-.15.06-.38.1-.67h.69v1.2h1.58V7h-1.58V9.21a4.94,4.94,0,0,0,0,.75,1.07,1.07,0,0,0,.15.44.65.65,0,0,0,.24.23.73.73,0,0,0,.35.07.91.91,0,0,0,.37-.08,1.7,1.7,0,0,0,.34-.23l.22.26a2.86,2.86,0,0,1-.66.49,1.46,1.46,0,0,1-.64.15,1.17,1.17,0,0,1-.94-.37,1.8,1.8,0,0,1-.31-1.17V7h-.72Z" transform="translate(-10.78 -4.22)"/><path class="cls-4" d="M376.28,10.38a4,4,0,0,1-.57.51,2.1,2.1,0,0,1-.58.29,2.17,2.17,0,0,1-.69.11,1.87,1.87,0,0,1-1.51-.6,2.66,2.66,0,0,1-.52-1.78,3.06,3.06,0,0,1,.26-1.29,2,2,0,0,1,1.86-1.16,1.94,1.94,0,0,1,.84.16,1.41,1.41,0,0,1,.56.42,2.21,2.21,0,0,1,.32.69,4.79,4.79,0,0,1,.13,1.07H373.3v.09a3,3,0,0,0,.13,1,1.15,1.15,0,0,0,1.19.84,1.66,1.66,0,0,0,.72-.15,2,2,0,0,0,.64-.49Zm-.82-2a3.63,3.63,0,0,0-.13-.86A1.07,1.07,0,0,0,375,7a.85.85,0,0,0-.54-.17,1,1,0,0,0-.8.4,2.12,2.12,0,0,0-.35,1.15Z" transform="translate(-10.78 -4.22)"/><path class="cls-4" d="M380.55,5.9c0-.31,0-.53,0-.65a1.51,1.51,0,0,0,0-.32.75.75,0,0,0-.09-.2.44.44,0,0,0-.15-.12l-.35-.08V4.27l1.18,0h.29V9.88c0,.25,0,.43,0,.54a.77.77,0,0,0,.06.26.33.33,0,0,0,.15.16A1.59,1.59,0,0,0,382,11v.25l-1.15,0h-.29l.06-.8-.08,0a3.67,3.67,0,0,1-.53.49,1.93,1.93,0,0,1-.49.26,1.4,1.4,0,0,1-.54.1,1.42,1.42,0,0,1-1.24-.61,3,3,0,0,1-.43-1.75,2.94,2.94,0,0,1,.28-1.36,2,2,0,0,1,.76-.84,2.16,2.16,0,0,1,1.08-.27,3.51,3.51,0,0,1,.59,0,2.81,2.81,0,0,1,.54.17Zm0,2.42a4.82,4.82,0,0,0,0-.61,1,1,0,0,0-.12-.39.75.75,0,0,0-.21-.26.8.8,0,0,0-.3-.16,1.5,1.5,0,0,0-.4-.05,1.08,1.08,0,0,0-.95.5,2.6,2.6,0,0,0-.33,1.44,3.05,3.05,0,0,0,.27,1.43.88.88,0,0,0,.82.48,1.69,1.69,0,0,0,.35,0,1.39,1.39,0,0,0,.28-.12,1.35,1.35,0,0,0,.28-.22,2,2,0,0,0,.21-.26,1.08,1.08,0,0,0,.1-.27,2.06,2.06,0,0,0,0-.39Z" transform="translate(-10.78 -4.22)"/><path class="cls-4" d="M329.24,19.61h-.47a1.64,1.64,0,0,0-.25-.46.88.88,0,0,0-.34-.24,1.44,1.44,0,0,0-.45-.06,1,1,0,0,0-.62.18.59.59,0,0,0-.23.5.7.7,0,0,0,.09.37.85.85,0,0,0,.29.27,4.36,4.36,0,0,0,.69.34,5.3,5.3,0,0,1,.77.4,1.53,1.53,0,0,1,.42.42,1.05,1.05,0,0,1,.15.57,1.45,1.45,0,0,1-.13.65,1.18,1.18,0,0,1-.37.43,1.63,1.63,0,0,1-.57.24,4,4,0,0,1-.72.07,5.06,5.06,0,0,1-.79-.06c-.26,0-.51-.1-.76-.16v-1h.48a1.24,1.24,0,0,0,.39.65,1.12,1.12,0,0,0,.72.2,2,2,0,0,0,.34,0,1,1,0,0,0,.3-.13.52.52,0,0,0,.21-.23.77.77,0,0,0,.08-.36.73.73,0,0,0-.1-.41,1,1,0,0,0-.3-.28,4.86,4.86,0,0,0-.72-.35,6,6,0,0,1-.72-.36,1.4,1.4,0,0,1-.42-.42,1.05,1.05,0,0,1-.15-.57,1.15,1.15,0,0,1,.21-.69,1.35,1.35,0,0,1,.63-.45,2.54,2.54,0,0,1,1-.16,6,6,0,0,1,.62,0,5.76,5.76,0,0,1,.76.13Z" transform="translate(-10.78 -4.22)"/><path class="cls-4" d="M330.15,18.54h1.39V21a6.46,6.46,0,0,0,0,.87,1.26,1.26,0,0,0,.14.45.71.71,0,0,0,.24.25,1,1,0,0,0,.8,0,1.32,1.32,0,0,0,.39-.26,1.19,1.19,0,0,0,.3-.36.93.93,0,0,0,.09-.42V19.76a3.87,3.87,0,0,0,0-.42.66.66,0,0,0,0-.23.47.47,0,0,0-.08-.14.33.33,0,0,0-.13-.09l-.28-.1v-.24h1.4v3.34c0,.25,0,.43,0,.54a.77.77,0,0,0,.06.26.41.41,0,0,0,.16.16A1.33,1.33,0,0,0,335,23v.25l-1.12.05h-.29l0-.8-.08,0a3.21,3.21,0,0,1-.77.64,1.49,1.49,0,0,1-.74.21,1.34,1.34,0,0,1-.73-.18,1,1,0,0,1-.43-.52,2.57,2.57,0,0,1-.15-1V19.76a3.67,3.67,0,0,0,0-.57.46.46,0,0,0-.12-.24.9.9,0,0,0-.39-.17Z" transform="translate(-10.78 -4.22)"/><path class="cls-4" d="M337.11,19.3h.06c.2-.19.36-.34.49-.44a1.88,1.88,0,0,1,.36-.24,2,2,0,0,1,.33-.13,1.63,1.63,0,0,1,.31,0,1.33,1.33,0,0,1,.8.22,1.15,1.15,0,0,1,.42.69,7.65,7.65,0,0,1,.6-.55,1.68,1.68,0,0,1,.46-.27,1.44,1.44,0,0,1,.51-.09,1.53,1.53,0,0,1,.56.09,1,1,0,0,1,.41.29,1.66,1.66,0,0,1,.24.5,3.42,3.42,0,0,1,.07.8V22a2.81,2.81,0,0,0,0,.51.52.52,0,0,0,.07.22.32.32,0,0,0,.14.14,1.68,1.68,0,0,0,.31.11v.24h-1.92V23a1.44,1.44,0,0,0,.27-.1.41.41,0,0,0,.14-.12.67.67,0,0,0,.09-.24,3.07,3.07,0,0,0,0-.5V20.73c0-.28,0-.5,0-.69a3,3,0,0,0-.07-.43,1,1,0,0,0-.11-.25.77.77,0,0,0-.15-.16.64.64,0,0,0-.2-.11.78.78,0,0,0-.29,0,.91.91,0,0,0-.37.08,1.45,1.45,0,0,0-.36.26,1.2,1.2,0,0,0-.29.38,1,1,0,0,0-.09.44V22a2.81,2.81,0,0,0,0,.51.52.52,0,0,0,.07.22.38.38,0,0,0,.14.14,1.68,1.68,0,0,0,.31.11v.24h-1.92V23a1.44,1.44,0,0,0,.27-.1.33.33,0,0,0,.14-.12.67.67,0,0,0,.09-.24,3.07,3.07,0,0,0,0-.5V20.73c0-.29,0-.53,0-.71a2.05,2.05,0,0,0-.08-.44.68.68,0,0,0-.13-.27.73.73,0,0,0-.16-.15.6.6,0,0,0-.2-.08,1,1,0,0,0-.25,0,.82.82,0,0,0-.38.09,1.89,1.89,0,0,0-.36.26,1.41,1.41,0,0,0-.27.36.91.91,0,0,0-.1.4V22a4.26,4.26,0,0,0,0,.43.6.6,0,0,0,.05.22.32.32,0,0,0,.08.14l.13.1.28.09v.24h-1.92V23a1.44,1.44,0,0,0,.27-.1.53.53,0,0,0,.14-.12.6.6,0,0,0,.09-.24c0-.11,0-.28,0-.5V19.88c0-.21,0-.38,0-.51a.64.64,0,0,0-.06-.3.33.33,0,0,0-.18-.17,1.41,1.41,0,0,0-.34-.1v-.26l1.14,0h.3Z" transform="translate(-10.78 -4.22)"/><circle class="cls-15" cx="55.19" cy="32.12" r="2.14"/><circle class="cls-16" cx="67.13" cy="45.24" r="2.14"/><circle class="cls-15" cx="80.55" cy="28.87" r="2.14"/><circle class="cls-15" cx="82.69" cy="56.28" r="2.14"/><circle class="cls-15" cx="92.1" cy="39.59" r="2.14"/><line class="cls-17" x1="65.51" y1="43.85" x2="56.68" y2="33.66"/><line class="cls-18" x1="79.87" y1="30.89" x2="79.87" y2="30.89"/><line class="cls-17" x1="68.55" y1="43.65" x2="79.21" y2="30.53"/><line class="cls-17" x1="69.27" y1="45.24" x2="90.03" y2="40.15"/><line class="cls-17" x1="80.82" y1="55.26" x2="68.61" y2="46.79"/><line class="cls-17" x1="84.07" y1="54.65" x2="91.51" y2="41.64"/><line class="cls-17" x1="90.76" y1="37.92" x2="82.21" y2="30.2"/><line class="cls-17" x1="78.53" y1="28.19" x2="57.07" y2="31.13"/><path class="cls-4" d="M129.46,154.33h.7v2.42h0a1.33,1.33,0,0,1,.5-.5,1.47,1.47,0,0,1,.72-.2c.52,0,1.35.32,1.35,1.65V160h-.7v-2.23c0-.62-.23-1.15-.89-1.15a1,1,0,0,0-.95.71.82.82,0,0,0-.05.33V160h-.7Z" transform="translate(-10.78 -4.22)"/><path class="cls-4" d="M133.53,162.67v-.25l.32-.31c.77-.74,1.12-1.13,1.13-1.59a.54.54,0,0,0-.6-.59,1.08,1.08,0,0,0-.65.25l-.13-.29a1.38,1.38,0,0,1,.86-.31.86.86,0,0,1,.93.89c0,.56-.41,1-1,1.63l-.24.22h1.36v.34Z" transform="translate(-10.78 -4.22)"/><path class="cls-4" d="M136.54,155.52h0a2.74,2.74,0,0,1,.28-.26,1,1,0,0,1,.21-.1.49.49,0,0,1,.21,0,.8.8,0,0,1,.23,0,.56.56,0,0,1,.17.09.44.44,0,0,1,.12.15,1,1,0,0,1,.07.21,2.41,2.41,0,0,1,0,.31v.85a1.31,1.31,0,0,0,0,.27.23.23,0,0,0,.06.12.55.55,0,0,0,.18.07v.11h-.9v-.11l.13,0a.15.15,0,0,0,.06-.05.28.28,0,0,0,0-.12,1.13,1.13,0,0,0,0-.23v-.59a2.74,2.74,0,0,0,0-.47.46.46,0,0,0-.12-.24.39.39,0,0,0-.25-.08.33.33,0,0,0-.17,0,.59.59,0,0,0-.17.11.55.55,0,0,0-.14.17.41.41,0,0,0-.05.18v.87a1.16,1.16,0,0,0,0,.22.21.21,0,0,0,0,.12l.07.07a.38.38,0,0,0,.14,0v.11h-.9v-.11a.42.42,0,0,0,.14,0,.22.22,0,0,0,.07-.06.34.34,0,0,0,0-.12s0-.12,0-.23v-1.9a2.37,2.37,0,0,0,0-.31.61.61,0,0,0,0-.14.51.51,0,0,0,0-.1l-.08,0a.35.35,0,0,0-.16,0v-.12l.55,0h.14Z" transform="translate(-10.78 -4.22)"/><path class="cls-4" d="M138.5,157.23l.13,0a.15.15,0,0,0,.06-.05.28.28,0,0,0,0-.11,1.25,1.25,0,0,0,0-.24v-1a1.63,1.63,0,0,0,0-.24.29.29,0,0,0,0-.14.2.2,0,0,0-.08-.08.53.53,0,0,0-.16,0v-.12l.53,0h.14v1.62a1.6,1.6,0,0,0,0,.28.14.14,0,0,0,.07.11.39.39,0,0,0,.17.07v.11h-.9Zm.65-3v.45h-.41v-.45Z" transform="translate(-10.78 -4.22)"/><path class="cls-4" d="M141.84,155.4l-.42,0,0,0a.43.43,0,0,1,.11.19.75.75,0,0,1,0,.26.69.69,0,0,1-.23.57.92.92,0,0,1-.65.2,1,1,0,0,1-.32,0c-.12.09-.18.17-.18.26a.19.19,0,0,0,0,.12.23.23,0,0,0,.11.07h.77a.89.89,0,0,1,.4.08.54.54,0,0,1,.22.2.7.7,0,0,1,.06.3.64.64,0,0,1-.12.38.77.77,0,0,1-.36.26,1.45,1.45,0,0,1-.54.09,2.77,2.77,0,0,1-.42,0,.85.85,0,0,1-.33-.09.42.42,0,0,1-.2-.17.45.45,0,0,1-.08-.26.35.35,0,0,1,.1-.26.75.75,0,0,1,.27-.21.37.37,0,0,1-.17-.13.34.34,0,0,1-.06-.2.39.39,0,0,1,.07-.23,1,1,0,0,1,.26-.25.69.69,0,0,1-.25-.26.78.78,0,0,1-.09-.37.91.91,0,0,1,.07-.35.58.58,0,0,1,.18-.23.89.89,0,0,1,.27-.15,1.27,1.27,0,0,1,.34,0,1.24,1.24,0,0,1,.33,0h.8Zm-1.52,2a.76.76,0,0,0-.18.18.54.54,0,0,0,0,.22.31.31,0,0,0,.16.3.94.94,0,0,0,.5.1,1.23,1.23,0,0,0,.35-.05.47.47,0,0,0,.22-.16.41.41,0,0,0,.08-.24.5.5,0,0,0,0-.12.24.24,0,0,0-.06-.11.36.36,0,0,0-.12-.08.69.69,0,0,0-.22,0h-.66Zm-.06-1.52a.72.72,0,0,0,.12.44.39.39,0,0,0,.33.15.4.4,0,0,0,.2,0,.37.37,0,0,0,.13-.12.49.49,0,0,0,.08-.18,1.49,1.49,0,0,0,0-.21,1.06,1.06,0,0,0,0-.34.41.41,0,0,0-.16-.2.4.4,0,0,0-.22-.06.43.43,0,0,0-.34.14A.72.72,0,0,0,140.26,155.86Z" transform="translate(-10.78 -4.22)"/><path class="cls-4" d="M142.68,155.52h0a2.74,2.74,0,0,1,.28-.26,1,1,0,0,1,.21-.1.49.49,0,0,1,.21,0,.8.8,0,0,1,.23,0,.56.56,0,0,1,.17.09.44.44,0,0,1,.12.15.65.65,0,0,1,.07.21,1.37,1.37,0,0,1,0,.31v.85a1.31,1.31,0,0,0,0,.27.23.23,0,0,0,.06.12.55.55,0,0,0,.18.07v.11h-.9v-.11l.13,0a.18.18,0,0,0,.07-.05.55.55,0,0,0,0-.12,1.35,1.35,0,0,0,0-.23v-.59a2.74,2.74,0,0,0,0-.47.46.46,0,0,0-.12-.24.37.37,0,0,0-.25-.08.33.33,0,0,0-.17,0,.57.57,0,0,0-.16.11.47.47,0,0,0-.15.17.41.41,0,0,0,0,.18v.87a1.16,1.16,0,0,0,0,.22,1,1,0,0,0,0,.12l.07.07a.38.38,0,0,0,.14,0v.11H142v-.11l.15,0,.06-.06a.34.34,0,0,0,0-.12,1.29,1.29,0,0,0,0-.23v-2.21c0-.05,0-.1,0-.14a.23.23,0,0,0,0-.1.18.18,0,0,0-.07,0,.46.46,0,0,0-.16,0v-.12l.55,0h.13Z" transform="translate(-10.78 -4.22)"/><path class="cls-4" d="M29.78,154.06h.71v2.41h0A1.41,1.41,0,0,1,31,156a1.44,1.44,0,0,1,.72-.2c.52,0,1.35.32,1.35,1.65v2.31h-.7v-2.23c0-.62-.24-1.15-.9-1.15a1,1,0,0,0-.94.71.82.82,0,0,0-.05.33v2.34h-.71Z" transform="translate(-10.78 -4.22)"/><path class="cls-4" d="M33.85,162.4v-.25l.32-.31c.78-.74,1.13-1.13,1.13-1.59a.55.55,0,0,0-.6-.6,1.08,1.08,0,0,0-.64.26l-.13-.29a1.32,1.32,0,0,1,.86-.31.85.85,0,0,1,.92.89c0,.56-.4,1-1,1.63l-.24.22h1.36v.34Z" transform="translate(-10.78 -4.22)"/><path class="cls-4" d="M36.86,156.5a1.7,1.7,0,0,0,0,.28.18.18,0,0,0,.07.11.39.39,0,0,0,.17.07v.11h-.91V157l.16-.06a.27.27,0,0,0,.07-.08.37.37,0,0,0,0-.12,1.09,1.09,0,0,0,0-.2v-2.21a.52.52,0,0,0,0-.14.23.23,0,0,0,0-.1.18.18,0,0,0-.07-.05.46.46,0,0,0-.16,0v-.12l.55,0h.13Z" transform="translate(-10.78 -4.22)"/><path class="cls-4" d="M38.51,157.11a.9.9,0,0,1-.72-.28,1.18,1.18,0,0,1-.25-.82,1.35,1.35,0,0,1,.13-.64A1,1,0,0,1,38,155a1.08,1.08,0,0,1,.52-.12.94.94,0,0,1,.74.28,1.22,1.22,0,0,1,.25.81,1.48,1.48,0,0,1-.13.64.84.84,0,0,1-.35.39A1.09,1.09,0,0,1,38.51,157.11ZM38,156a1.43,1.43,0,0,0,.15.72.47.47,0,0,0,.43.25.56.56,0,0,0,.26-.07.67.67,0,0,0,.17-.2,1.24,1.24,0,0,0,.1-.29,2,2,0,0,0,0-.35,1.68,1.68,0,0,0-.08-.55.66.66,0,0,0-.2-.33.43.43,0,0,0-.29-.1.46.46,0,0,0-.42.24A1.27,1.27,0,0,0,38,156Z" transform="translate(-10.78 -4.22)"/><path class="cls-4" d="M41.57,155.37l-.6,1.71h-.31l-.55-1.69a1.1,1.1,0,0,0-.09-.23.86.86,0,0,0-.07-.1.32.32,0,0,0-.13-.05v-.11h.9V155a.39.39,0,0,0-.18.07.17.17,0,0,0,0,.13.59.59,0,0,0,0,.13,1.24,1.24,0,0,0,0,.16l.36,1.16.58-1.76h.32l.5,1.76.4-1.12a1,1,0,0,0,0-.16.77.77,0,0,0,0-.15.25.25,0,0,0-.05-.15.3.3,0,0,0-.17-.07v-.11h.79V155l-.09,0a.18.18,0,0,0-.07.05l-.07.1-.09.22-.66,1.67h-.31Z" transform="translate(-10.78 -4.22)"/><path class="cls-4" d="M179.9,64.26h0a4.07,4.07,0,0,1,.6-.54,1.86,1.86,0,0,1,.44-.23,1.19,1.19,0,0,1,.47-.08,1.73,1.73,0,0,1,.47.06,1.08,1.08,0,0,1,.37.19,1,1,0,0,1,.26.32,1.49,1.49,0,0,1,.15.45,4,4,0,0,1,0,.66v1.84a2.48,2.48,0,0,0,0,.58.38.38,0,0,0,.13.24,1,1,0,0,0,.38.17v.23h-1.92v-.23l.27-.11a.41.41,0,0,0,.14-.12.55.55,0,0,0,.09-.24,3.07,3.07,0,0,0,0-.5V65.68a5,5,0,0,0-.07-1,.83.83,0,0,0-.26-.51A.72.72,0,0,0,181,64a1,1,0,0,0-.36.07,1.82,1.82,0,0,0-.36.25,1.29,1.29,0,0,0-.31.36.76.76,0,0,0-.1.39v1.87c0,.23,0,.38,0,.48a1,1,0,0,0,.07.23.33.33,0,0,0,.15.16,1.43,1.43,0,0,0,.31.12v.23h-1.93v-.23a1.14,1.14,0,0,0,.3-.12.38.38,0,0,0,.15-.13.68.68,0,0,0,.07-.24,3,3,0,0,0,0-.5V62.86c0-.32,0-.53,0-.66a1.3,1.3,0,0,0,0-.31.41.41,0,0,0-.09-.2.31.31,0,0,0-.15-.12,1.55,1.55,0,0,0-.34-.09v-.25l1.17,0h.3Z" transform="translate(-10.78 -4.22)"/><path class="cls-4" d="M185.22,71.54a1,1,0,0,1-.92-.48,2.88,2.88,0,0,1-.3-1.47,4.06,4.06,0,0,1,.09-.91,2,2,0,0,1,.26-.63,1.17,1.17,0,0,1,.4-.37,1.13,1.13,0,0,1,.51-.12,1,1,0,0,1,.93.48,3.74,3.74,0,0,1,0,3A1.06,1.06,0,0,1,185.22,71.54Zm-.67-2a3.79,3.79,0,0,0,.18,1.36.57.57,0,0,0,.53.44.55.55,0,0,0,.51-.41,3.57,3.57,0,0,0,.17-1.27,5.1,5.1,0,0,0-.09-1.06,1.27,1.27,0,0,0-.23-.58.48.48,0,0,0-.37-.17.47.47,0,0,0-.33.11.87.87,0,0,0-.22.34,2.23,2.23,0,0,0-.11.53C184.57,69,184.55,69.24,184.55,69.5Z" transform="translate(-10.78 -4.22)"/><path class="cls-4" d="M179.25,115h0a6.76,6.76,0,0,1,.61-.54,1.8,1.8,0,0,1,.43-.23,1.5,1.5,0,0,1,.47-.08,1.43,1.43,0,0,1,.48.07,1,1,0,0,1,.37.19,1.18,1.18,0,0,1,.26.32,2,2,0,0,1,.15.45,3.86,3.86,0,0,1,.05.66v1.84a3.73,3.73,0,0,0,0,.58.55.55,0,0,0,.13.24,1.16,1.16,0,0,0,.39.16v.24h-1.93v-.24l.28-.1a.53.53,0,0,0,.14-.12.92.92,0,0,0,.08-.25,2.72,2.72,0,0,0,0-.49v-1.28a5.87,5.87,0,0,0-.07-1,.86.86,0,0,0-.26-.52.81.81,0,0,0-.54-.17.78.78,0,0,0-.35.07,1.24,1.24,0,0,0-.36.24,1.42,1.42,0,0,0-.31.36.83.83,0,0,0-.11.4v1.87a4.55,4.55,0,0,0,0,.47.54.54,0,0,0,.21.4,1.43,1.43,0,0,0,.32.11v.24h-1.94v-.24l.31-.11a.38.38,0,0,0,.14-.14.56.56,0,0,0,.08-.24c0-.1,0-.27,0-.49v-4.74a2.31,2.31,0,0,0,0-.32.53.53,0,0,0-.09-.2.44.44,0,0,0-.15-.12,1.68,1.68,0,0,0-.35-.09v-.25l1.18-.05h.29Z" transform="translate(-10.78 -4.22)"/><path class="cls-4" d="M185,121.46a.86.86,0,0,0,0,.25.26.26,0,0,0,.06.13.27.27,0,0,0,.14.08.9.9,0,0,0,.22,0l.35,0v.21h-2.1V122a3.18,3.18,0,0,0,.45,0,.42.42,0,0,0,.2-.07.26.26,0,0,0,.11-.14.9.9,0,0,0,0-.28v-2.31a.27.27,0,0,0,0-.17.13.13,0,0,0-.11,0,.57.57,0,0,0-.26.09l-.42.26-.12-.22,1.33-.79H185c0,.18,0,.43,0,.76Z" transform="translate(-10.78 -4.22)"/><path class="cls-4" d="M179.25,164.17h0a5.16,5.16,0,0,1,.61-.53,1.86,1.86,0,0,1,.43-.24,1.49,1.49,0,0,1,.47-.07,1.75,1.75,0,0,1,.48.06,1,1,0,0,1,.63.51,2,2,0,0,1,.15.45,3.86,3.86,0,0,1,.05.66v1.84a3.64,3.64,0,0,0,0,.58.55.55,0,0,0,.13.24,1,1,0,0,0,.39.16v.24h-1.93v-.24l.28-.1a.53.53,0,0,0,.14-.12.83.83,0,0,0,.08-.24,2.85,2.85,0,0,0,0-.5v-1.28a6,6,0,0,0-.07-1,.89.89,0,0,0-.26-.52.81.81,0,0,0-.54-.17.78.78,0,0,0-.35.07,1.86,1.86,0,0,0-.36.24,1.3,1.3,0,0,0-.31.37.77.77,0,0,0-.11.39v1.87a4.55,4.55,0,0,0,0,.47.52.52,0,0,0,.07.24.43.43,0,0,0,.14.16,1.06,1.06,0,0,0,.32.11v.24h-1.94v-.24a1.31,1.31,0,0,0,.31-.11.38.38,0,0,0,.14-.14.56.56,0,0,0,.08-.24c0-.1,0-.26,0-.49v-4.74a2.53,2.53,0,0,0,0-.32.53.53,0,0,0-.09-.2.44.44,0,0,0-.15-.12l-.35-.08v-.26l1.18,0h.29Z" transform="translate(-10.78 -4.22)"/><path class="cls-4" d="M185,171l.22,0a.3.3,0,0,0,.14-.06.27.27,0,0,0,.08-.1s0-.11.08-.2h.24l-.05.83h-2.34v-.14a3.71,3.71,0,0,1,.33-.61,5.7,5.7,0,0,1,.58-.73c.23-.25.38-.43.48-.56A1.83,1.83,0,0,0,185,169a1.24,1.24,0,0,0,.11-.28,1.26,1.26,0,0,0,0-.27,1.12,1.12,0,0,0-.07-.38.58.58,0,0,0-.21-.25.61.61,0,0,0-.36-.1.72.72,0,0,0-.71.59h-.35v-.54a3.49,3.49,0,0,1,.65-.24,2.22,2.22,0,0,1,.54-.07,1.25,1.25,0,0,1,.8.23.85.85,0,0,1,.27.68,1.12,1.12,0,0,1,0,.27,1.09,1.09,0,0,1-.1.25,1.69,1.69,0,0,1-.17.27l-.24.29-.45.49a5.88,5.88,0,0,0-.8,1Z" transform="translate(-10.78 -4.22)"/><path class="cls-4" d="M129.46,116.13h.7v2.42h0a1.33,1.33,0,0,1,.5-.5,1.47,1.47,0,0,1,.72-.2c.52,0,1.35.32,1.35,1.66v2.3h-.7v-2.22c0-.63-.23-1.15-.89-1.15a1,1,0,0,0-.95.7.82.82,0,0,0-.05.33v2.34h-.7Z" transform="translate(-10.78 -4.22)"/><path class="cls-4" d="M134.42,121.82h0l-.53.29-.08-.32.66-.35h.36v3h-.4Z" transform="translate(-10.78 -4.22)"/><path class="cls-4" d="M136.54,117.33h0a1.73,1.73,0,0,1,.28-.25A.71.71,0,0,1,137,117a.49.49,0,0,1,.21,0,.8.8,0,0,1,.23,0,.56.56,0,0,1,.17.09.44.44,0,0,1,.12.15,1,1,0,0,1,.07.21,2.41,2.41,0,0,1,0,.31v.86a1.47,1.47,0,0,0,0,.27.24.24,0,0,0,.06.11.55.55,0,0,0,.18.07v.12h-.9V119l.13,0s.05,0,.06-.06a.28.28,0,0,0,0-.11,1.21,1.21,0,0,0,0-.23V118a2.61,2.61,0,0,0,0-.46.45.45,0,0,0-.12-.25.39.39,0,0,0-.25-.08.47.47,0,0,0-.17,0,.94.94,0,0,0-.17.11.7.7,0,0,0-.14.17.41.41,0,0,0-.05.18v.88a1.28,1.28,0,0,0,0,.22.2.2,0,0,0,0,.11.16.16,0,0,0,.07.07.38.38,0,0,0,.14,0v.12h-.9V119a.27.27,0,0,0,.14,0,.22.22,0,0,0,.07-.06.36.36,0,0,0,0-.11s0-.13,0-.23v-1.91a2.37,2.37,0,0,0,0-.31.61.61,0,0,0,0-.14,1,1,0,0,0,0-.1l-.08-.05a.35.35,0,0,0-.16,0v-.12l.55,0h.14Z" transform="translate(-10.78 -4.22)"/><path class="cls-4" d="M138.5,119l.13,0s.05,0,.06-.06a.28.28,0,0,0,0-.11,1.25,1.25,0,0,0,0-.24v-1a1.42,1.42,0,0,0,0-.23.33.33,0,0,0,0-.15.2.2,0,0,0-.08-.08l-.16,0V117l.53,0h.14v1.63a1.47,1.47,0,0,0,0,.27.14.14,0,0,0,.07.11.39.39,0,0,0,.17.07v.12h-.9Zm.65-3v.44h-.41v-.44Z" transform="translate(-10.78 -4.22)"/><path class="cls-4" d="M141.84,117.2l-.42,0,0,0a.43.43,0,0,1,.11.19.75.75,0,0,1,0,.26.72.72,0,0,1-.23.58,1,1,0,0,1-.65.2,1,1,0,0,1-.32,0c-.12.09-.18.17-.18.26a.25.25,0,0,0,0,.13.17.17,0,0,0,.11.06l.23,0h.54a.9.9,0,0,1,.4.07.54.54,0,0,1,.22.2.73.73,0,0,1,.06.3.64.64,0,0,1-.12.38.77.77,0,0,1-.36.26,1.45,1.45,0,0,1-.54.09l-.42,0a1.06,1.06,0,0,1-.33-.1.42.42,0,0,1-.2-.17.45.45,0,0,1-.08-.26.35.35,0,0,1,.1-.26.75.75,0,0,1,.27-.21.37.37,0,0,1-.17-.13.31.31,0,0,1-.06-.19.4.4,0,0,1,.07-.24,1.26,1.26,0,0,1,.26-.25.63.63,0,0,1-.25-.26.75.75,0,0,1-.09-.37.86.86,0,0,1,.07-.34.55.55,0,0,1,.18-.24.7.7,0,0,1,.27-.14,1,1,0,0,1,.34,0,1.24,1.24,0,0,1,.33,0h.8Zm-1.52,2a.76.76,0,0,0-.18.18.54.54,0,0,0,0,.22.34.34,0,0,0,.16.31,1.06,1.06,0,0,0,.5.09,1,1,0,0,0,.35,0,.47.47,0,0,0,.22-.16.41.41,0,0,0,.08-.24.5.5,0,0,0,0-.12.24.24,0,0,0-.06-.11.36.36,0,0,0-.12-.08.72.72,0,0,0-.22,0h-.34Zm-.06-1.52a.7.7,0,0,0,.12.44.39.39,0,0,0,.33.15.4.4,0,0,0,.2,0,.37.37,0,0,0,.13-.12.49.49,0,0,0,.08-.18,1.49,1.49,0,0,0,0-.21,1.06,1.06,0,0,0,0-.34.38.38,0,0,0-.16-.19.34.34,0,0,0-.22-.07.41.41,0,0,0-.34.15A.67.67,0,0,0,140.26,117.66Z" transform="translate(-10.78 -4.22)"/><path class="cls-4" d="M142.68,117.33h0a1.73,1.73,0,0,1,.28-.25.71.71,0,0,1,.21-.11.49.49,0,0,1,.21,0,.8.8,0,0,1,.23,0,.56.56,0,0,1,.17.09.44.44,0,0,1,.12.15.65.65,0,0,1,.07.21,1.37,1.37,0,0,1,0,.31v.86a1.47,1.47,0,0,0,0,.27.24.24,0,0,0,.06.11.55.55,0,0,0,.18.07v.12h-.9V119l.13,0,.07-.06a.66.66,0,0,0,0-.11,1.42,1.42,0,0,0,0-.23V118a2.61,2.61,0,0,0,0-.46.45.45,0,0,0-.12-.25.37.37,0,0,0-.25-.08.47.47,0,0,0-.17,0l-.16.11a.57.57,0,0,0-.15.17.41.41,0,0,0,0,.18v.88a1.28,1.28,0,0,0,0,.22l0,.11.07.07a.38.38,0,0,0,.14,0v.12H142V119a.37.37,0,0,0,.15,0l.06-.06a.36.36,0,0,0,0-.11,1.42,1.42,0,0,0,0-.23v-2.22s0-.1,0-.14a.3.3,0,0,0,0-.1.18.18,0,0,0-.07-.05.46.46,0,0,0-.16,0v-.12l.55,0h.13Z" transform="translate(-10.78 -4.22)"/><path class="cls-4" d="M129.46,76.6h.7V79h0a1.31,1.31,0,0,1,.5-.49,1.47,1.47,0,0,1,.72-.2c.52,0,1.35.32,1.35,1.65v2.31h-.7V80.05c0-.62-.23-1.15-.89-1.15a1,1,0,0,0-.95.71.82.82,0,0,0-.05.33v2.34h-.7Z" transform="translate(-10.78 -4.22)"/><path class="cls-4" d="M135.54,83.39c0,1-.38,1.6-1,1.6s-1-.55-1-1.56.44-1.58,1.06-1.58S135.54,82.42,135.54,83.39Zm-1.64,0c0,.79.24,1.23.61,1.23s.62-.49.62-1.26-.19-1.24-.61-1.24S133.9,82.61,133.9,83.44Z" transform="translate(-10.78 -4.22)"/><path class="cls-4" d="M136.54,77.79h0a2.74,2.74,0,0,1,.28-.26,1,1,0,0,1,.21-.1.49.49,0,0,1,.21,0,.8.8,0,0,1,.23,0,.56.56,0,0,1,.17.09.44.44,0,0,1,.12.15.73.73,0,0,1,.07.21,2.36,2.36,0,0,1,0,.3V79a1.31,1.31,0,0,0,0,.27.17.17,0,0,0,.06.11.38.38,0,0,0,.18.08v.11h-.9V79.5l.13,0a.15.15,0,0,0,.06,0,.34.34,0,0,0,0-.12,1.13,1.13,0,0,0,0-.23v-.59a2.74,2.74,0,0,0,0-.47.34.34,0,0,0-.37-.32.47.47,0,0,0-.17,0,1.1,1.1,0,0,0-.17.12.55.55,0,0,0-.14.17.37.37,0,0,0-.05.18V79a1.16,1.16,0,0,0,0,.22.25.25,0,0,0,.1.19l.14,0v.11h-.9V79.5a.42.42,0,0,0,.14,0,.16.16,0,0,0,.07-.07.23.23,0,0,0,0-.11s0-.12,0-.23v-1.9a2.37,2.37,0,0,0,0-.31.71.71,0,0,0,0-.15.39.39,0,0,0,0-.09l-.08,0a.49.49,0,0,0-.16-.05v-.11l.55,0h.14Z" transform="translate(-10.78 -4.22)"/><path class="cls-4" d="M138.5,79.5l.13,0a.15.15,0,0,0,.06,0,.34.34,0,0,0,0-.12,1.13,1.13,0,0,0,0-.23v-1a1.63,1.63,0,0,0,0-.24.29.29,0,0,0,0-.14.16.16,0,0,0-.08-.08.53.53,0,0,0-.16,0v-.12l.53,0h.14V79a1.7,1.7,0,0,0,0,.28.16.16,0,0,0,.07.11.39.39,0,0,0,.17.07v.11h-.9Zm.65-3V77h-.41v-.44Z" transform="translate(-10.78 -4.22)"/><path class="cls-4" d="M141.84,77.67l-.42,0,0,0a.55.55,0,0,1,.11.2.75.75,0,0,1,0,.26.69.69,0,0,1-.23.57.92.92,0,0,1-.65.2,1,1,0,0,1-.32,0,.33.33,0,0,0-.18.26.21.21,0,0,0,0,.12.17.17,0,0,0,.11.06.69.69,0,0,0,.23,0h.54a.89.89,0,0,1,.4.08.54.54,0,0,1,.22.2.65.65,0,0,1,.06.29.67.67,0,0,1-.12.39.84.84,0,0,1-.36.26,1.45,1.45,0,0,1-.54.09,2.77,2.77,0,0,1-.42,0,1.06,1.06,0,0,1-.33-.09.42.42,0,0,1-.2-.17.46.46,0,0,1-.08-.27.39.39,0,0,1,.1-.26.86.86,0,0,1,.27-.2.37.37,0,0,1-.17-.13.34.34,0,0,1-.06-.2.44.44,0,0,1,.07-.24,1.26,1.26,0,0,1,.26-.24.69.69,0,0,1-.25-.26.79.79,0,0,1-.09-.38.89.89,0,0,1,.07-.34.69.69,0,0,1,.18-.24.87.87,0,0,1,.27-.14,1.27,1.27,0,0,1,.34,0,1.24,1.24,0,0,1,.33,0h.8Zm-1.52,2a.76.76,0,0,0-.18.18.54.54,0,0,0,0,.22.31.31,0,0,0,.16.3.94.94,0,0,0,.5.1,1.23,1.23,0,0,0,.35,0,.47.47,0,0,0,.22-.16.41.41,0,0,0,.08-.24.5.5,0,0,0,0-.12.24.24,0,0,0-.06-.11.36.36,0,0,0-.12-.08.69.69,0,0,0-.22,0h-.66Zm-.06-1.52a.72.72,0,0,0,.12.44.39.39,0,0,0,.33.15.4.4,0,0,0,.2,0,.37.37,0,0,0,.13-.12.71.71,0,0,0,.08-.18,1.5,1.5,0,0,0,0-.22,1,1,0,0,0,0-.33.41.41,0,0,0-.16-.2.4.4,0,0,0-.22-.06.43.43,0,0,0-.34.14A.72.72,0,0,0,140.26,78.13Z" transform="translate(-10.78 -4.22)"/><path class="cls-4" d="M142.68,77.79h0a2.74,2.74,0,0,1,.28-.26,1,1,0,0,1,.21-.1.49.49,0,0,1,.21,0,.8.8,0,0,1,.23,0,.56.56,0,0,1,.17.09.44.44,0,0,1,.12.15.52.52,0,0,1,.07.21,1.32,1.32,0,0,1,0,.3V79a1.31,1.31,0,0,0,0,.27.17.17,0,0,0,.06.11.38.38,0,0,0,.18.08v.11h-.9V79.5l.13,0a.18.18,0,0,0,.07,0,.83.83,0,0,0,0-.12,1.35,1.35,0,0,0,0-.23v-.59a2.74,2.74,0,0,0,0-.47.39.39,0,0,0-.12-.24.37.37,0,0,0-.25-.08.47.47,0,0,0-.17,0,1.1,1.1,0,0,0-.16.12.47.47,0,0,0-.15.17.37.37,0,0,0,0,.18V79a1.16,1.16,0,0,0,0,.22.81.81,0,0,0,0,.11.27.27,0,0,0,.07.08l.14,0v.11H142V79.5l.15,0a.13.13,0,0,0,.06-.07.23.23,0,0,0,0-.11,1.35,1.35,0,0,0,0-.23V76.83c0-.06,0-.1,0-.15a.19.19,0,0,0,0-.09.18.18,0,0,0-.07,0,.76.76,0,0,0-.16-.05v-.11l.55,0h.13Z" transform="translate(-10.78 -4.22)"/><path class="cls-4" d="M29.78,116h.71v2.41h0a1.34,1.34,0,0,1,.51-.49,1.44,1.44,0,0,1,.72-.2c.52,0,1.35.32,1.35,1.65v2.31h-.7v-2.23c0-.62-.24-1.15-.9-1.15a1,1,0,0,0-.94.71.82.82,0,0,0-.05.33v2.34h-.71Z" transform="translate(-10.78 -4.22)"/><path class="cls-4" d="M34.74,121.67h0l-.52.28-.08-.31.66-.36h.35v3h-.4Z" transform="translate(-10.78 -4.22)"/><path class="cls-4" d="M36.86,118.42a1.47,1.47,0,0,0,0,.27.2.2,0,0,0,.07.12.39.39,0,0,0,.17.07V119h-.91v-.11a.53.53,0,0,0,.16-.06.27.27,0,0,0,.07-.08.37.37,0,0,0,0-.12,1.09,1.09,0,0,0,0-.2v-2.21a.68.68,0,0,0,0-.15.19.19,0,0,0,0-.09.18.18,0,0,0-.07,0,.76.76,0,0,0-.16,0v-.11l.55,0h.13Z" transform="translate(-10.78 -4.22)"/><path class="cls-4" d="M38.51,119a.9.9,0,0,1-.72-.28,1.19,1.19,0,0,1-.25-.83,1.34,1.34,0,0,1,.13-.63,1,1,0,0,1,.36-.39,1.08,1.08,0,0,1,.52-.12.94.94,0,0,1,.74.28,1.22,1.22,0,0,1,.25.81,1.48,1.48,0,0,1-.13.64.89.89,0,0,1-.35.39A1.09,1.09,0,0,1,38.51,119ZM38,117.88a1.43,1.43,0,0,0,.15.72.48.48,0,0,0,.43.25.56.56,0,0,0,.26-.07.67.67,0,0,0,.17-.2,1.24,1.24,0,0,0,.1-.29,2.07,2.07,0,0,0,0-.35,1.79,1.79,0,0,0-.08-.56.68.68,0,0,0-.2-.32.43.43,0,0,0-.29-.1.46.46,0,0,0-.42.24A1.27,1.27,0,0,0,38,117.88Z" transform="translate(-10.78 -4.22)"/><path class="cls-4" d="M41.57,117.29,41,119h-.31l-.55-1.69a.91.91,0,0,0-.09-.23A.43.43,0,0,0,40,117a.32.32,0,0,0-.13,0v-.11h.9v.11a.3.3,0,0,0-.18.07.17.17,0,0,0,0,.13.59.59,0,0,0,0,.13,1.24,1.24,0,0,0,0,.16l.36,1.16.58-1.76h.32l.5,1.76.4-1.12a1,1,0,0,0,0-.16.77.77,0,0,0,0-.15.25.25,0,0,0-.05-.15.3.3,0,0,0-.17-.07v-.11h.79v.11l-.09,0a.18.18,0,0,0-.07.05l-.07.1-.09.22L42.37,119h-.31Z" transform="translate(-10.78 -4.22)"/><path class="cls-4" d="M29.78,77.07h.71v2.41h0A1.34,1.34,0,0,1,31,79a1.44,1.44,0,0,1,.72-.2c.52,0,1.35.32,1.35,1.65v2.31h-.7V80.52c0-.62-.24-1.15-.9-1.15a1,1,0,0,0-.94.71.82.82,0,0,0-.05.33v2.34h-.71Z" transform="translate(-10.78 -4.22)"/><path class="cls-4" d="M35.87,83.86c0,1-.38,1.6-1.06,1.6s-1-.55-1-1.56.44-1.58,1-1.58S35.87,82.89,35.87,83.86Zm-1.65,0c0,.79.24,1.23.62,1.23s.62-.49.62-1.26-.19-1.24-.62-1.24S34.22,83.08,34.22,83.91Z" transform="translate(-10.78 -4.22)"/><path class="cls-4" d="M36.86,79.51a1.47,1.47,0,0,0,0,.27.2.2,0,0,0,.07.12.39.39,0,0,0,.17.07v.11h-.91V80a.53.53,0,0,0,.16-.06.27.27,0,0,0,.07-.08.37.37,0,0,0,0-.12,1.15,1.15,0,0,0,0-.2V77.3a.61.61,0,0,0,0-.15.19.19,0,0,0,0-.09.18.18,0,0,0-.07,0,.76.76,0,0,0-.16-.05v-.11l.55,0h.13Z" transform="translate(-10.78 -4.22)"/><path class="cls-4" d="M38.51,80.12a.9.9,0,0,1-.72-.28,1.19,1.19,0,0,1-.25-.83,1.34,1.34,0,0,1,.13-.63A1,1,0,0,1,38,78a1.08,1.08,0,0,1,.52-.12.94.94,0,0,1,.74.28,1.22,1.22,0,0,1,.25.81,1.48,1.48,0,0,1-.13.64.89.89,0,0,1-.35.39A1.09,1.09,0,0,1,38.51,80.12ZM38,79a1.43,1.43,0,0,0,.15.72.48.48,0,0,0,.43.25.47.47,0,0,0,.26-.08.53.53,0,0,0,.17-.19,1.24,1.24,0,0,0,.1-.29,2.07,2.07,0,0,0,0-.35,1.79,1.79,0,0,0-.08-.56.68.68,0,0,0-.2-.32.43.43,0,0,0-.29-.1.46.46,0,0,0-.42.24A1.25,1.25,0,0,0,38,79Z" transform="translate(-10.78 -4.22)"/><path class="cls-4" d="M41.57,78.38,41,80.09h-.31l-.55-1.69a.91.91,0,0,0-.09-.23.43.43,0,0,0-.07-.1.32.32,0,0,0-.13,0V77.9h.9V78a.3.3,0,0,0-.18.07.17.17,0,0,0,0,.13.59.59,0,0,0,0,.13,1.24,1.24,0,0,0,0,.16l.36,1.16.58-1.77h.32l.5,1.77.4-1.12a1,1,0,0,0,0-.16.77.77,0,0,0,0-.15.25.25,0,0,0-.05-.15.3.3,0,0,0-.17-.07V77.9h.79V78l-.09,0a.18.18,0,0,0-.07,0l-.07.1-.09.22-.66,1.67h-.31Z" transform="translate(-10.78 -4.22)"/><path class="cls-4" d="M320.21,60.28v1.14h-3v-.2L319.35,58h-1.06a.55.55,0,0,0-.31.07.61.61,0,0,0-.22.23,2.74,2.74,0,0,0-.19.44h-.34V57.68h3v.2l-2.14,3.22h1a1.19,1.19,0,0,0,.31,0,.59.59,0,0,0,.17-.1.83.83,0,0,0,.15-.22,4,4,0,0,0,.16-.47Z" transform="translate(-10.78 -4.22)"/><path class="cls-4" d="M361.84,59.48l.51-.64a1.2,1.2,0,0,0,.13-.21.46.46,0,0,0,0-.2.18.18,0,0,0-.07-.15.34.34,0,0,0-.2-.08V58h1.27v.2a.8.8,0,0,0-.3.16,3.26,3.26,0,0,0-.38.41l-.8,1,.89,1.2a2.36,2.36,0,0,0,.34.39,1,1,0,0,0,.31.2v.19H362v-.19c.22,0,.33-.11.33-.25a.4.4,0,0,0,0-.15.62.62,0,0,0-.1-.17l-.57-.79L361,61a1,1,0,0,0-.1.16.29.29,0,0,0,0,.16.24.24,0,0,0,.07.17.37.37,0,0,0,.23.09v.19h-1.3v-.19a1,1,0,0,0,.23-.12,1.68,1.68,0,0,0,.21-.18,4.15,4.15,0,0,0,.28-.33l.82-1-.84-1.14a3.34,3.34,0,0,0-.27-.34,1.24,1.24,0,0,0-.19-.16.51.51,0,0,0-.17-.07V58h1.53v.2c-.2,0-.31.11-.31.24a.41.41,0,0,0,.05.18.75.75,0,0,0,.12.2Z" transform="translate(-10.78 -4.22)"/></svg>